<?xml version="1.0" encoding="UTF-8"?><svg id="Layer_1" xmlns="http://www.w3.org/2000/svg" viewBox="0 0 2380.98 668.33"><defs><style>.cls-1{letter-spacing:.02em;}.cls-2{letter-spacing:-.03em;}.cls-3{letter-spacing:-.02em;}.cls-4{font-family:MalgunGothic, 'Malgun Gothic';font-size:276px;}</style></defs><path d="M539.97,20.92c2.7,.27,4.98,1.03,7.02,.61,12.12-2.49,24.19-5.25,34.9-7.61,3.05,2.21,5.33,3.86,7.61,5.51,.51-2.15,1.01-4.29,1.72-7.29,.29-.11,1.61-.6,4.69-1.75-1.06,3.6-1.76,5.87-2.4,8.16-.51,1.83-.73,3.78-1.46,5.51-1.22,2.88-2.78,5.62-4.14,8.45-.74,1.55-1.65,3.11-1.95,4.77-.49,2.74-.1,5.69-.88,8.32-1.39,4.67-3.8,5.13-8.4,3.32-2.63-1.03-5.8-.6-8.65-1.2-1.11-.23-2.02-1.47-3.01-2.25,1.08-.74,2.09-1.62,3.26-2.18,2.04-.99,5.49-1.35,5.95-2.76,.73-2.23-.42-5.13-.99-7.69-.2-.89-.97-1.72-1.63-2.44-1.18-1.28-2.89-3.68-3.64-3.43-2.13,.73-4.75,2.14-5.65,4.02-2.95,6.17-2.69,6.29,.13,14.1-4.16-1.69-7.24-2.95-10.1-4.11-1.43,1.66-2.96,3.71-4.76,5.47-4.34,4.23-4.62,8.32-.88,13.14,.84,1.08,1.98,3.17,1.57,3.71-.83,1.1-2.6,1.86-4.06,2.05-3.23,.41-6.52,.38-10.09,.55,0-2.01,.15-3.32-.03-4.59-.4-2.87-1.79-4.07-4.84-2.92-5.3,1.99-11.02,3.14-15.91,5.84-3.39,1.88-5.67,5.77-8.47,8.73-1.92,2.03-3.82,4.11-5.87,6.01-2.55,2.36-5.25,4.56-8.25,7.15-.61-.56-1.87-1.74-3.99-3.7,.18,2.1-.1,3.49,.44,4.39,3.23,5.4,2.34,10.77,.27,16.21-.23,.61-.4,1.29-.42,1.94-.24,7.37-2.86,11.21-11.39,11.5-6.46,.21-13.18,2.95-19.07,5.97-3.38,1.73-5.78,6.01-7.79,9.61-1.56,2.8-1.96,6.3-2.66,9.53-1,4.6-3.42,6.95-7.59,5.09-9.26-4.14-16.34-.02-22.84,5.27-8.63,7.01-16.8,14.61-24.85,22.3-4.04,3.86-2.41,7.71,2.44,10.09,6.85,3.37,12.99,3,20.04,.28,5.36-2.06,11.63-1.67,17.44-2.67,1.82-.31,3.7-1.3,5.16-2.46,2.2-1.75,4.2-3.82,6.03-5.96,3.13-3.67,6.94-3.76,11.34-3.18,5.38,.71,10.85,1.01,16.28,.96,3.28-.03,4.91,.63,5.22,4.21,.44,4.99,3.73,8.01,8.76,8.5,4.63,.45,9.28,.75,13.92,1,5.38,.3,6.71,1.58,6.8,6.93,.03,1.83-.13,3.67-.05,5.5,.11,2.72-.34,4.78-3.58,5.49-.99,.22-1.65,1.95-2.46,3,1.16,.73,2.48,2.22,3.44,2.02,2.25-.47,5.17-1.21,6.25-2.86,1.04-1.6,.91-4.91-.08-6.71-2.46-4.5-1.88-8.11,1.28-11.87,3.74-4.45,2.75-7.33-2.08-10.37-3.99-2.51-7.37-5.98-11.63-9.52-.57,.66-1.71,2.43-3.27,3.7-1.82,1.47-3.92,3.22-6.06,3.49-1.7,.21-4.58-1.23-5.22-2.69-.56-1.27,1.16-3.66,2.1-5.43,1.31-2.47,2.87-4.8,4.23-7.25,2.59-4.66,14.49-8.91,19.23-6.13,3.64,2.14,6.67,1.77,9.77-.13,11.3-6.92,24.54-7.38,36.77-11.21,1.89-.59,4.18-.68,5.61-1.85,7.15-5.84,14.35-2.44,21.22,0,11.34,4.02,22.48,8.6,33.54,13.32,1.96,.84,3.85,3.23,4.55,5.32,1.28,3.8,3.47,6.43,7.32,6.26,6.08-.26,12.23-.87,18.12-2.27,2.64-.63,4.55-3.85,7.12-5.31,3.36-1.91,7.05-3.24,10.94-4.97,.37,1.13,.7,1.69,.72,2.26,.28,8.55,.31,8.39,8.63,10.18,1.58,.34,3.74,2.4,3.95,3.9,1.51,10.51,6.75,19.5,13.72,26.62,7.15,7.31,7.98,15.09,6.2,23.79-1.37,6.74-.63,11.86,5.38,16.14,4.58,3.26,4.39,7.08-.12,11.33-4.65,4.38-6.33,9.55-5.81,15.74,.62,7.26,1.52,8.49,8.05,10.18-4.02,1.79-8.09,3.47-12.02,5.45-1.2,.6-2.26,1.87-2.92,3.08-2.28,4.14-4.42,8.35-6.48,12.6-1.14,2.35-2.64,4.75-2.93,7.25-1.71,14.53-3.23,29.04-7.64,43.12-1.87,5.97-3.59,8.09-9.68,8.97-5.27,.77-10.48,2.01-15.77,2.45-6.07,.5-12.27,1.02-18.27,.31-8.52-1.02-14.74,3.44-21.09,7.52-3.54,2.28-6.78,2.97-10.78,2.22-9.8-1.85-19.59-4.1-29.49-4.96-6.28-.55-12.81,.75-19.11,1.85-11.39,1.99-20.08,9.17-28.91,15.98-1.29,1-2.74,1.78-5.28,3.4,.65-4.45,1.14-7.86,1.79-12.37-5.55,3.08-10.01,5.61-14.54,8.01-.81,.43-2.05,.73-2.84,.43-4.08-1.57-8.04-3.31-12.33-.46-.46,.3-1.71-.68-2.63-.96-2.48-.76-4.97-1.47-6.43-1.89-.95,2.88-1.03,5.13-2.19,6.13-1.77,1.54-4.13,1.83-4.52-1.71-.4-3.68-2.36-4.38-5.56-2.98-2.97,1.3-5.93,2.7-9.03,3.61-1.98,.58-4.26,.76-6.29,.42-5.72-.95-11.13-1.04-16.48,1.89-1.61,.88-4.21,.57-6.16,.05-4.59-1.22-8.39-.49-11.95,2.8-5.11,4.72-6.97,4.23-11.95-.99-1.74-1.83-4.69-3.48-7.11-3.51-5.8-.09-11.7,.38-17.38,1.5-4.22,.83-8.12,3.19-12.26,4.59-2.6,.88-5.35,1.5-8.09,1.76-5.6,.53-11.41,0-16.79,1.32-4.13,1.01-8.08,3.73-11.5,6.46-11.41,9.1-22.55,18.54-33.78,27.85-.89-2.6-1.97-5.19-2.67-7.88-.97-3.79,2.22-6.32,6.86-5.97,2.35,.18,4.83-.05,7.1-.65,.83-.22,1.68-2.06,1.67-3.16,0-.72-1.45-1.8-2.42-2.06-8.31-2.2-15.16-2.17-20.03,5.22-1.42,2.16-4.87,2.93-7.27,4.51-1.63,1.08-3.37,2.23-4.52,3.76-2.32,3.1-3.57,7.46-6.51,9.56-8.53,6.12-13.62,15.28-20.98,22.41-3.91,3.78-7.04,9.17-8.53,14.4-1.1,3.88-.04,9.26,1.97,12.92,2.54,4.64,7.32,7.88,13.26,7.33,1.57-.14,3.51-1.4,4.4-2.73,2.48-3.71,4.64-7.64,6.65-11.63,3.27-6.49,6.28-13.12,9.5-19.64,.63-1.28,1.72-2.34,2.6-3.5,.47,.27,.93,.54,1.4,.81-.83,1.86-1.7,3.69-2.47,5.58-2.18,5.38-4.7,10.66-6.33,16.2-1.34,4.56-.1,8.65,5.21,10.27,3.42,1.05,4.63,3.39,4.22,6.89-.78,6.66-.03,12.92,4.92,18.12,.92,.96,1.74,2.99,1.35,4.04-1.6,4.25,1.03,6.89,2.98,9.95,1.5,2.35,2.98,4.83,3.81,7.45,1.36,4.3,4.37,5.42,8.11,4.46,5.55-1.43,10.73-3.34,16.87-3,3.39,.19,7.61-3.77,10.42-6.81,3.48-3.78,6.75-5.7,11.71-3.47,.89,.4,2.21,.93,2.87,.57,7.91-4.37,16.09,1.14,23.98-.78,3.15-.77,6.13-2.24,9.22-3.27,1.68-.56,3.45-1.24,5.18-1.24,5.41-.01,8.97-2.36,11.59-7.15,1.04-1.91,3.85-2.84,5.83-4.25,2.54-1.81,5.81-3.16,7.4-5.6,1.98-3.04,.73-6.32-2.46-8.67-.78-.57-.82-2.16-1.2-3.29,1.18-.29,2.49-1.06,3.5-.77,3.39,.99,4.54-.99,5.41-3.56,1.04-3.06,.05-4.47-3.29-4.08-1.22,.14-2.46,.02-3.69,.02,3.74-11.43,11.88-19.42,19.11-28,2.91-3.46,2.43-8.26-1.96-9.7-4.81-1.58-9.98-2.07-15.72-3.17v-16.32c-.48-.04-.96-.07-1.44-.11,.56-.58,1.04-1.26,1.68-1.73,7.42-5.5,14.82-11.02,22.33-16.38,1.02-.73,3.11-1.22,3.89-.67,.92,.65,1.66,2.87,1.23,3.86-1.44,3.26-3.36,6.33-5.28,9.37-.92,1.45-2.23,2.65-3.88,4.56,3.7,1.06,6.56,1.87,10.32,2.95,.42-3.2,1.13-6.41,1.19-9.63,.18-9.77,4.91-15.33,14.37-17.17,3.02-.59,5.83-2.29,8.73-3.5,1.42-.59,2.84-1.2,4.94-2.08v8.89c3.74,0,7.07-.07,10.4,.04,1.2,.04,2.88,.12,3.49,.87,3.73,4.58,8.96,4.99,14.08,5,6.02,.02,11.31,1.01,14.55,6.84,3.17-1.41,6-2.67,8.8-3.91,3.01,4.54,2.37,10.26-1.04,15.35-1.2,1.79-2.66,4.77-1.96,6.2,1.59,3.24,4.91,5.04,8.8,3.85,3.25-.99,5.12-.57,6.52,3,.61,1.54,3.54,2.17,6.29,3.69-1.03-4.21-1.66-6.78-2.28-9.35,.39-.22,.78-.44,1.17-.67,1.63,.9,3.27,1.8,4.9,2.69,3.64-5.98,0-15.86-6.26-17.59-1.59-.44-3.33-.84-4.59-1.8-1.3-1-3.22-3.23-2.87-3.92,.95-1.88,2.72-3.86,4.62-4.57,1.12-.42,3.43,1.19,4.65,2.44,2.28,2.35,4.36,4.96,6.12,7.72,1,1.57,1.52,3.61,1.74,5.49,.63,5.3,2.42,6.78,7.62,5.39,2.87-.76,5.62-2.02,8.39-3.14,4.28-1.72,5.82-.53,5.64,3.93-.08,1.97,.22,4.84,1.47,5.72,1.21,.86,4.11,.2,5.81-.68,4.12-2.14,8.15-4.57,11.85-7.36,1.72-1.3,2.6-3.72,4.31-6.31-5.19-.45-9.07-.79-13.03-1.14,.43-4.49,3.55-5.25,6.71-5.81,3.79-.68,7.84-.23,9.86-5.02,.95-2.24,13.89-3.04,16.18-1.45,2.72,1.9,4.64,2.71,5.43-1.81,.34-1.92,2.07-3.6,3.28-5.57-.58-.92-1.68-2.06-2.07-3.41-.74-2.57,.03-5.45,3.05-4.79,10.84,2.4,21-2.08,31.52-2.61,3.92-.2,7.92-1.13,11.62-2.46,4.14-1.48,5.41,2.5,8.2,3.43-.81,1.37-1.58,3.87-2.42,3.89-2.34,.07-4.68-1.04-7.07-1.39-1.37-.2-2.95-.09-4.16,.47-.4,.19,.1,2.2,.07,3.37-.07,3.39,.22,6.87-.42,10.16-.76,3.91-.28,6.1,4.27,6.31,1.69,.08,4.2,.82,4.84,2.05,3.67,7.01,11.91,6.05,17.2,10.2,1.02,.8,3.56-.34,6.13-.69-1.74-1.85-2.82-2.99-4.18-4.43,6.37-2.15,12.28-4.15,18.68-6.31,.43-5.61,5.76-6.79,10.09-7.7,10.37-2.16,20.94-3.41,31.44-4.93,4.32-.62,8.67-.99,13.23-1.49-.04,.25-.21,1.24-.38,2.22,4.22,1.25,4.93,4.91,2.13,10.98,7.58,.84,4.9,8.55,8.35,12.5,.38,.44-.79,2.55-1.58,3.65-1.58,2.19-3.39,4.22-5.12,6.3-1.15,1.38-2.29,2.76-3.48,4.12-.2,.23-.69,.23-.87,.46-3.89,5.27-8.55,10.18-11.3,15.99-1.46,3.1,.4,7.76,.71,11.21-1.05,2.7-2.97,5.33-2.9,7.9,.15,5.24,5.91,10.42,14.09,13.73-3.86,2.33-7.65,4.36-11.13,6.84-1.38,.99-1.94,3.05-3.06,4.48-1.58,2.02-3.26,3.97-5.05,5.81-1.96,2.02-4.08,3.88-6.38,6.04-1.47-1.85-2.71-3.4-3.8-4.79-.95,4.65-1.98,9.07-2.73,13.55-.58,3.5-1.63,5.96-5.57,7.27-4.44,1.48-8.89,3.44-8.36,10,.3,3.72-1.71,6.79-6.75,5.29-1.13-.33-3.59,.7-4.01,1.7-1.17,2.81-2.18,5.92-2.17,8.92,0,3.18-.66,5.04-3.86,5.86-4.91,1.25-6.69,4.91-7.3,9.6-.36,2.81-1.26,5.55-2.18,9.42-5.73-6.1-10.51-6.4-15.29-.89-.31,.35-2.45-.83-3.71-1.37-1.91-.81-3.91-2.55-5.69-2.34-4.92,.58-9.78,1.81-14.6,3.06-3.61,.94-5.5,3.45-5.53,7.33-.04,5.01-2.81,8.68-7.74,10.08-2.22,.63-4.59,.7-6.88,1.11-4.62,.82-8.67,2.19-9.66,7.78-.52,2.92-2.26,4.36-5.84,3.45-2.47-.62-5.64-.04-5.17,3.98,.1,.85,1.09,2.31,1.58,2.28,3.19-.22,6.36-.78,10.56-1.37-.82,1.33-1.51,3.55-2.32,3.59-5.87,.32-11.35,4.14-17.76,.8-3.42-1.78-8.12-1.36-12.25-1.48-5.11-.15-8.09-2.49-9.16-7.64,3.72,.37,7.39,.73,11.33,1.12,1.02-3.68,.63-7.1-2.52-8.4-1.73-.71-5.2,.57-6.76,2.1-3.22,3.16-4.98,1.59-6.64-1.14-2.97-4.9-1.69-9.57,2.21-14.63-8.26-2.59-15.73-5.01-23.27-7.22-.96-.28-2.42,.18-3.31,.79-5.35,3.68-10.44,1.81-15.96,.18-4.19-1.23-9-1.59-13.31-.92-9.72,1.52-19.24,4.39-27.13,10.48-2.54,1.96-4.6,5.88-4.92,9.1-.85,8.47-1.91,16.48-9.37,22.05-.56,.42-.48,1.69-1.11,4.24,2.95-1.6,4.74-2.41,6.36-3.49,2.61-1.74,4.95-3.94,7.68-5.44,6.65-3.65,20.51,4.39,20.85,11.96,.02,.47-.06,.99-.24,1.42-1.65,3.88-14.32,8.9-18.43,7.61-4.8-1.51-9.64-2.65-14.1,1.35-.83,.75-2.85,.75-4.09,.36-5.43-1.74-10.53-2.35-16.38-.7-6.07,1.71-12.69,1.48-19.07,2.03-.8,.07-1.63-.27-2.45-.41-2.15-.37-4.3-.74-6.68-.34-3.48-2.86-6.98-5.68-12.31-4.67-.75,.14-2.05-1.82-2.86-2.97-2.5-3.54-5.16-4.1-7.48-.5-3.09,4.79-7.6,4.6-11.44,3.31-6.8-2.28-13.3-5.58-19.69-8.9-3.42-1.78-5.71-4.84-3.84-9.11,1.58-3.6,7.89-6.28,11.73-5.31,.98,.25,2.1-.02,3.15-.06-.1-1.19,.14-2.56-.37-3.54-2.05-4-8.38-6.14-14.53-4.41-5.02,1.42-9.05,.85-13.65-1.93-2.9-1.76-7.35-1.61-11.03-1.34-14.89,1.09-29.75,2.56-44.61,3.91-1.24,.11-2.46,.39-4.06,.65,2.1,5.38,6.67,4.86,10.43,5.56,.8,7.66-6.43,14.42-13.63,13.15-2.45-.43-5-.29-7.45-.71-3.54-.61-6.58-1.82-5.17-6.53,.18-.61-.31-1.43-.83-3.56-4.27,9.07-9.82,5.46-15.48,3.61-4.57-1.49-9.53-1.87-11.66-7.25-.24-.62-1.81-1.24-2.54-1.05-9.6,2.49-17.7-3.02-26.45-4.92-5.29-1.15-10.44-2.99-15.56-4.79-1.11-.39-2.4-1.79-2.62-2.92-1.01-5.18-3.41-7.09-7.76-4.61-7,4-14.48,1.21-21.67,2.29-4.83,.72-7.51-3.45-6.39-8.39,1.06-4.66-1.17-6.67-4.84-8.49-2.89-1.44-5.49-3.47-8.19-5.27-3.57-2.37-7.13-4.76-10.69-7.16-2.76-1.87-5.5-3.76-8.25-5.65,.15-.53,.31-1.05,.46-1.58,2.9-1.05,5.96-1.79,8.61-3.27,1.23-.68,2.63-3.08,2.29-4.2-1.41-4.71-2.99-9.32-9.32-10.05-2.72-.32-5.11-2.92-7.83-4.07-2.74-1.16-5.65-2.21-8.58-2.58-3.37-.42-6.84-.14-10.25,.04-.94,.05-2.06,.67-2.64,1.4-.25,.31,.58,1.61,1.09,2.35,.24,.36,.85,.49,1.32,.66,4.12,1.51,6.55,4.17,5.22,8.75-.74,2.56-7.35,4.08-10.83,2.45-12.48-5.86-23.45-13.31-27.8-27.45-1.95-6.34,2.07-10.85,5.28-15.18,6.82-9.24,16.02-5.12,24.63-3.45,2.11,.41,4.14,1.5,6.23,1.58,1.8,.06,4.66-.4,5.18-1.51,.66-1.41,.04-4.25-1.1-5.52-5.53-6.18-11.42-12.03-17.38-18.21-.89,.8-1.56,1.93-2.42,2.1-6.34,1.23-12.7,2.34-19.07,3.33-3.84,.6-6.21-.34-6.61-5.1-.18-2.17-2.59-4.74-4.67-6.03-2.75-1.71-6.24-2.19-9.29-3.48-8.31-3.53-15.93-7.9-22.25-14.74-6.18-6.68-13.68-12.13-19.94-18.73-3.42-3.61-6.65-8.21-7.83-12.9-1.12-4.42,.11-9.64,1.11-14.34,1.19-5.63-3.34-3.43-5.66-4.67v-7.53c2.04,.98,3.71,1.91,5.47,2.6,2.3,.9,4.62,2.08,7.01,2.33,7.17,.75,8.81-1.8,6.87-8.66-2-7.08-3.89-14.1-8.92-19.76-.85-.95-2.05-1.62-2.78-2.64-1.03-1.44-1.86-3.04-2.62-4.65-1.27-2.69-2.4-5.45-3.64-8.15-.45-.99-1.53-1.9-1.54-2.86-.13-7.77-.07-15.54-.07-24.95,2.92,2.34,6,3.55,6.34,5.3,1.8,9.09,10.44,10.95,16,15.99,2.69,2.44,6.12,4.06,8.78,6.53,1.39,1.29,1.81,3.61,2.68,5.47-1.69,.14-3.39,.31-5.08,.43-1.45,.1-2.9,.14-3.5-.63-2.6-2.74-5.19-5.49-7.81-8.22-1.96-2.04-3.82-4.21-5.98-6.01-.95-.79-3.02-1.46-3.74-.97-.89,.61-1.64,2.91-1.16,3.77,3.31,6.02,4.45,13.75,13.35,15.34,4.72,.85,6.02,4.42,3.56,8.85-2.67,4.81-1.43,8.17,2.4,11.29,1.29,1.05,2.55,2.14,3.83,3.21,2.04,1.7,3.99,4.55,6.14,4.71,1.75,.13,3.5-3.5,5.68-4.52,1.83-.85,4.85-1.23,6.4-.28,10.05,6.16,20.47,4.02,30.41,.91,8.01-2.51,15.45-6.91,23.01-10.74,3.5-1.77,2.01-4.31,.22-6.61-1.66-2.13-3.27-4.29-4.91-6.43,.4-.53,.8-1.06,1.21-1.59,3.82,1.98,7.88,3.61,11.4,6.03,6.69,4.59,14.09,6.38,21.97,6.68,3.62,.14,6.54,.18,6.03,5.35-.15,1.49,2.48,4.63,3.83,4.63,3.56,0,7.75,.34,9.91-3.95,2.04-4.07,4.22-8.08,6.52-12.01,1.89-3.23,4.23-1.96,6.15-.06,2.61,2.59,4.81,2.62,7.81,.33,1.41-1.08,3.96-.77,6-.9,2.07-.13,4.16-.03,6.24-.03,.07-.66,.14-1.32,.21-1.97-1.56-.56-3.14-1.64-4.68-1.59-6.21,.2-12.44,.51-18.61,1.25-3.45,.41-11.64-3.45-12.53-6.74-.22-.81,0-2.25,.57-2.69,3.85-2.95,2.16-7.07,2.23-10.71,.02-.93-1.85-2.44-3.1-2.78-6.09-1.64-12.35-2.67-18.36-4.53-3.55-1.1-6.77-3.3-10.07-5.11-5.22-2.86-10.39-5.81-15.18-8.5,2.67-.49,6.52-.09,7.86-1.74,1.53-1.86,.81-5.56,1.2-9.87,4.63,1.62,8.82,3.06,13,4.55,1.8,.64,3.94,2.41,5.29,1.92,10.54-3.86,20.57-1.04,30.62,1.78,9.69,2.72,19.26,5.88,29,8.36,4.96,1.26,10.18,1.65,15.31,2.09,6.22,.53,11.31,3.2,16.29,6.82,3.34,2.43,7.5,3.76,11.37,5.4,2.89,1.22,6.81,1.31,8.69,3.35,6.32,6.89,13.9,5.28,20.84,3.1,6.88-2.16,13.28-6.08,19.52-9.84,1.28-.77,1.91-4.66,1.17-6.4-2.93-6.83-6.02-13.7-14.11-16.4-1.46-.49-3.25-3.46-2.95-4.86,.33-1.5,2.82-3.21,4.61-3.55,3.32-.65,5.5-1.22,6.65-5.22,1.23-4.29,8.89-5.26,12.4-2.38,1.11,.91,2.57,1.4,3.85,2.1,3.99,2.18,8.16,3.66,9.88,8.93,1.7,5.2,7.19,7.15,13.44,5.68,8.72-2.06,17.33-4.6,26.05-6.64,3.04-.71,6.29-.49,9.43-.77,4.87-.43,8.81-.08,9.26,6.43,.12,1.68,3.21,4.55,4.83,4.47,4.81-.22,9.9-.87,14.25-2.78,4.88-2.14,9.26-3.35,14.29-1.1,1.3,.58,2.96,.93,4.34,.7,8.68-1.48,17.32-3.15,25.98-4.77,3.21-.6,5.2-2.12,4.13-6.02-4.14-.29-8.27-.57-12.4-.86,.01-.61,.02-1.22,.03-1.83,10.92-.79,21.35-6.19,32.88-1.68,4.48,1.75,9.68,1.93,14.58,2.29,7.12,.52,14.32,1.14,21.42,.67,9.93-.66,20.81,2.14,28.94-6.76,1.65-1.8,3.97-2.98,5.98-4.45-.2-.55-.4-1.11-.61-1.66,2.13,1.43,4.28,2.82,6.38,4.29,4.9,3.44,8.99,3.71,13.86,.38,5.54-3.79,12.76-5.07,16.6-11.5,.63-1.05,3.3-1.11,5.04-1.19,2.99-.13,6.01,.32,8.98,.1,8.16-.58,12.02-3.92,13.62-11.89,.65-3.26,2.61-4.26,5.53-4.66,7.12-.97,16.61-9.04,17.35-15.54,1-8.81,.69-20.74-8.96-25.58-1.29-.65-2.36-1.82-3.42-2.86-5-4.97-10.78-8.3-17.97-8.7-4.15-.23-8.32-.67-12.46-.54-5.36,.17-10.11,2.12-13.42,6.59-3.74,5.05-8.7,7.1-14.82,6.21-6.5-.95-11.75,.26-15.03,6.72-1.01,1.98-3.14,3.4-4.84,5-5.77,5.44-6.76,5.44-12.76,.07-4.11-3.68-8.31-2.33-10.57,2.77-.71,1.61-4.03,3.73-4.99,3.26-2.53-1.25-4.43-3.8-6.58-5.83,1.38-1.38,2.57-3.07,4.2-4.04,1.66-1,3.75-1.25,5.62-1.9,3.44-1.19,5.88-3.47,5.36-7.27-.38-2.76-6-3.64-9.66-1.83-2.83,1.39-5.68,2.73-9.33,4.48-.02,.2-.33,1.49-.26,2.76,.23,4.1,.63,8.2-5.19,8.62-.15,.01-.36,.14-.41,.26-3.26,7.46-8.48,4.25-13.64,2.74-5.02-1.47-13.44,2.01-16.41,6.25-1.81,2.58-1.5,5,1.35,6.12,2.83,1.11,6,1.83,9.03,1.86,6.19,.06,12.59,6.19,11.54,12.21-.36,2.07-2.35,4.82-4.22,5.48-4.42,1.56-9.1,2.88-13.69-.71-1.11-.87-4.38,.01-6.06,1.05-6.65,4.14-7.23,4.28-12.34-1.62-4.31-4.98-6.68-10.59-5.3-17.43,.88-4.38-1.58-7.79-6.1-7.8-4.18-.01-8.37,1.09-12.26,1.66,1.98,3.87,3.48,7.14,5.33,10.2,.44,.72,2.03,.83,3.12,1.06,3.67,.76,6.45,2.4,7.22,7.04-1.55,.31-3.01,.42-4.32,.91-2.56,.97-5.62,1.57-7.45,3.37-5.1,5.01-5.91,5.12-10.12-1.57-5.2,2.01-10.5,4.08-15.83,6.11-6.01,2.29-11.1-.51-13.48-6.3-1.26-3.07-3.94-5.52-1.9-9.17-1.29-.6-2.92-2.03-3.82-1.66-4.8,1.93-9.18,.67-13.48-1.23-2.83-1.25-4.55-.59-6.19,2-3.15,4.98-7.7,7.85-13.77,7.32-3.59-.31-6.27-1.21-5.13-6.27,.75-3.36-.43-7.16-.82-10.76-.05-.43-.46-1.01-.85-1.18-4.49-1.98-8.84-4.67-13.55-5.63-5.68-1.16-10.85,.61-13.58,6.68-.86,1.91-2.48,3.49-3.89,5.4,2.61,3.74,7.06,7.09,3.01,12.72-1.12-.9-2.47-1.44-2.75-2.31-1.69-5.34-5.83-4.91-10.05-4.63-4.33,.29-5.1,1.82-2.83,5.7,.9,1.53,1.61,3.17,2.72,5.39,1.58-.12,3.67-.36,5.77-.43,1.17-.04,2.8-.23,3.4,.41,.67,.73,.95,2.61,.47,3.48-1.86,3.37-.2,4.78,2.59,6.16,1.33,.66,2.31,2.05,3.25,3.78-4.6-.36-6.31,2.1-8.23,5.29-1.33,2.21-4.15,3.86-6.65,4.94-3.25,1.4-6.19-.21-7.21-3.41-.88-2.77-1.4-6.12-.62-8.79,.56-1.9,3.52-3.1,6.17-5.22-1.17-.23-2.64-1-3.8-.66-6.35,1.84-11.66,.73-16.29-4.28-3.01-3.25-6.54-2.75-9.72,.08-2.34,2.08-4.56,4.28-7.68,7.23,2.5,0,4.19-.29,5.75,.05,4.29,.94,8.75,1.64,12.72,3.4,3.19,1.41,4.16,4.88,2.39,8.14-1.93,3.55-4.67,1.87-7.31,.62-1.63-.77-3.41-1.35-5.18-1.68-3.28-.61-5.44,.66-6.23,4.11-.79,3.44,1.33,4.33,3.97,5.07,1.42,.4,2.97,.94,4.03,1.9,1.62,1.47,4.16,3.55,3.94,5.01-.32,2.09-2.6,4.05-4.41,5.66-.67,.6-2.77,.52-3.55-.09-4.42-3.49-8.89-7-12.86-10.97-5.55-5.55-11.61-10.25-19.52-11.2-3.73-.45-7.66,1.02-11.52,1.42-3.5,.36-7.15,1.14-10.51,.51-5.27-.98-9.9-2.33-13.57,3.5-.96,1.52-4.78,2.2-6.99,1.77-3.89-.77-4.65-4.24-4.49-7.53,3.73-1.88,7.35-3.4,10.64-5.44,2.57-1.59,2.3-3.31,.38-6.06-4.14-5.92-8.15-12.17-10.74-18.86-1.91-4.91-1.65-10.72-1.9-16.15-.04-.79,2.61-2.53,3.88-2.41,4.93,.49,9.82,1.48,14.7,2.43,8.11,1.58,13.34-.32,16.12-6.31,.61-1.32,.29-3.06,.4-4.61-1.36,.04-2.81-.22-4.06,.17-3.48,1.07-6.9,2.33-10.3,3.64-5.05,1.95-7.7,.06-8.16-5.52-.17-2.04-1.23-4-1.89-6-1.95,.95-3.88,1.95-5.84,2.85-1.96,.91-3.97,1.73-5.95,2.59-.64-1.61-2.26-3.9-1.71-4.68,1.19-1.71,3.32-3.28,5.35-3.8,9.95-2.52,13.14-1.19,14.45-13.34,.09-.82,.2-1.79,.68-2.38,3.5-4.32,6.9-8.76,10.78-12.72,1.23-1.26,3.85-1.63,5.82-1.6,4.97,.06,9.89-2.93,11.31-7.71,1.13-3.78,3.18-3.92,6.43-2.59,6.01,2.47,10.66,6.69,14.66,11.51,2.82,3.4,6.02,3.42,9.31,2.18,7.75-2.92,15.52-5.88,22.9-9.59,3.22-1.62,5.58-5.03,8.21-7.75,1.37-1.42,2.16-3.6,3.74-4.6,6.66-4.21,13.19-8.92,20.39-11.94,10.62-4.46,18.73-11.17,24.27-21.16,2.58-4.66,5.17-9.14,10.52-11.5,1.68-.74,2.34-3.68,3.61-5.52,3.78-5.49,6.95-11.64,11.67-16.16,3.51-3.35,9.1-4.51,13.71-6.75,2.39-1.16,4.94-2.19,6.96-3.85,12.46-10.19,25-20.29,37.07-30.94,6.29-5.55,13.33-6.37,20.9-5.48,1.26,.15,2.78,2.61,3.14,4.23,.2,.89-2.01,3.4-2.71,3.25-7.95-1.76-11.57,5.52-17.29,8.24-3.95,1.88-6.59,6.47-10.51,8.5-6.34,3.27-9.75,6.76-8.75,14.81,.43,3.45-1.18,9.22-6.39,11.57-.69,.31,.09,3.9,.21,6.4-11.02,8.04-13.45,7.96-19.53-1.24-1.68,2.12-3.87,3.99-4.83,6.36-.76,1.88-.85,4.99,.24,6.45,2.53,3.41,5.82,6.31,9.09,9.07,1.2,1.01,3.23,1.04,4.88,1.51,.35-1.63,.69-3.26,1.12-5.25,2.59,.21,5.71,.61,8.84,.68,6.78,.15,10.86-2.73,13.22-9.1,2.73-7.35,5.82-9.61,13.75-9.74,4.34-.07,7.58-1.41,9.73-5.56,.97-1.86,3.14-3.92,5.08-4.31,7.15-1.42,12.07-6.22,17.12-10.66,4.26-3.74,7.49-8.68,11.85-12.26,5.08-4.19,10.61-8.04,16.46-11.04,11.31-5.8,22.99-10.88,34.49-16.32,1.18-.56,2.43-1.3,3.23-2.3,3.73-4.61,8.59-6.85,14.31-8.13,4.03-.9,6.54-3.55,7.22-8.39,.57-4.03,3.15-7.77,4.87-11.63,.72-1.62,1.52-3.2,1.67-3.51l.19-.02ZM243.41,240.15c1.42,.26,3.05,1.09,4.24,.68,3.88-1.36,6.68-.93,9.47,2.54,1.32,1.64,4.55,2.79,6.69,2.49,5.12-.72,10.17-2.2,15.08-3.88,1.41-.48,3.27-2.85,3.07-4.02-.26-1.48-2.43-2.63-3.15-3.32-1.89,2.23-3.63,5.21-4.37,4.98-2.16-.68-3.92-2.63-5.83-4.08,1.27-1.51,2.58-4.34,3.8-4.3,4.5,.13,10.36-4.14,13.19,4.79,1.15-2.44,2.2-3.67,2.07-4.75-.09-.74-1.81-1.31-2.84-1.89-.82-.46-2.14-.61-2.46-1.27-2.26-4.59-4.31-9.28-6.46-14.01-.98,.86-1.72,1.83-2.69,2.32-5.52,2.74-11.04,5.4-14.31,11.1-.35,.62-2.03,.36-2.98,.77-1.53,.66-3.01,1.47-4.42,2.36-1.12,.71-1.98,1.88-3.15,2.41-4.62,2.1-8.59,.68-12.65-2.49,.19,1.86,.87,3.28,1.91,4.35,1.83,1.87,3.88,3.53,5.88,5.33-.92,.72-2.07,1.29-2.71,2.21-.99,1.42-1.64,3.09-2.43,4.65,1.94,.45,3.93,1.33,5.79,1.11,.59-.07,1.18-3.07,1.12-4.7-.04-1.15-1.19-2.25-1.85-3.38h0Zm-119.47,155.61c1.66,.44,2.25,.65,2.86,.76,1.55,.27,3.1,.49,4.65,.74,.25-1.99,1.46-4.96,.6-5.8-5.04-4.91-10.01-11.31-17.87-10.27-11.31,1.51-22.48,4.22-33.62,6.8-1.27,.29-2.83,3.09-2.77,4.67,.26,6.67,3.9,11.02,9.28,11.96,5.67,1,13.73-2.54,16.16-7.1,2.77-5.19,7.38-5.71,11.77-1.88,3.06,2.68,6.74,4.66,10.14,6.95,.22-.38,.44-.76,.66-1.14-.54-1.64-1.08-3.28-1.86-5.68h0ZM413.47,226.31c.06,.4,.12,.81,.18,1.21,4.37-.79,8.74-1.57,13.1-2.37,1.77-.33,3.73-1.42,5.25-.97,7.93,2.36,15.03-.27,22.18-3.03,4.05-1.56,4.74-3.93,2.29-7.99-9.54,4.33-10.82,4.1-18.4-3.2-.6-.57-1.27-1.08-1.94-1.56-4.53-3.25-4.28-5.65,.82-8.02,1.65-.77,3.5-1.3,4.88-2.41,1.54-1.23,2.65-2.99,3.94-4.52-.3-.54-.6-1.08-.9-1.62-3.34,0-7.59-1.31-9.85,.26-5.58,3.86-10.53,8.99-9.82,16.75,.45,5.01-.89,9.37-4.24,12.8-1.99,2.05-4.96,3.15-7.49,4.67h0ZM77.44,436.63c-1.4-1.76-1.94-2.81-2.78-3.46-8.58-6.58-17.1-13.26-25.93-19.49-1.61-1.14-4.6-.33-6.95-.41-1.39-.05-2.77-.09-4.16-.13,.06-1.23-.07-2.51,.21-3.69,1.18-5.11-.79-7.39-5.99-6.34-2.03,.41-3.93,1.67-5.8,2.71-3.02,1.7-3.04,3.82-.33,5.79,14.3,10.37,28.96,20.11,46.22,24.97,1.42,.4,3.04,.05,5.52,.05h-.01Zm-40.55,2.25c1.79-.7,4.66-1.23,4.72-1.97,.14-1.91-.41-4.41-1.66-5.78-5.7-6.23-11.47-12.45-17.8-18.01-2.05-1.8-5.9-1.57-8.92-2.26,.02,3.26-.05,6.52,.12,9.77,.04,.68,.86,1.41,1.45,1.97,4.69,4.46,9.22,9.11,14.22,13.2,2.02,1.66,5.09,2.04,7.88,3.09h-.01Zm447.52,84.82c0-4.42-.01-8.37,0-12.32,.05-13.36-6.5-22.72-19.24-27.52-.59-.22-1.13-.62-1.66-.99-1.2-.84-2.39-1.71-3.58-2.57-.68,1.74-2.27,3.78-1.82,5.15,.79,2.4,2.36,5.46,4.44,6.39,12.05,5.41,17.91,14.21,16.56,27.51-.4,3.94,1.5,5.05,5.3,4.35Zm-175.69-155.91c3.17-1.51,6.37-2.41,8.81-4.31,5.6-4.37,11.62-6.86,18.79-6.95,1.59-.02,4.26-1.76,4.49-3.05,.5-2.85-1.59-4.79-4.59-4.4-6.55,.85-13.29,1.3-19.54,3.23-8.26,2.54-9.31,5.26-7.96,15.48h0Zm231.31,93.19c-5.47-.14-9.84,3.09-10,7.4-.18,4.8,5,9.72,10.49,9.96,5.65,.25,9.71-3.43,9.77-8.81,.05-5.76-3.08-8.37-10.26-8.55h0Zm-346.64-103.84c.49-.9,.97-1.8,1.46-2.7-3.56-2.32-6.96-4.96-10.73-6.86-3.98-2-8.23-3.62-12.53-4.78-3.03-.82-6.39-1.05-9.49-.67-1.48,.18-4.08,2.9-3.82,3.54,.8,2.02,2.39,4.3,4.28,5.16,1.93,.88,4.57,.16,6.9,.23,1.81,.06,3.7-.04,5.4,.44,6.21,1.76,12.36,3.74,18.53,5.64h0Zm26.27,62.55c4.51,2.71,7.74,.87,10.35-1.64,5.25-5.05,10.32-10.32,15.07-15.83,1.13-1.32,1.67-4.68,.8-5.87-1.74-2.36-4.24-1.57-6.28,.65-5.38,5.84-10.92,11.52-16.29,17.37-1.38,1.5-2.34,3.39-3.64,5.32h0Zm11.39-167.79c-.96-2.51-1.12-4.39-2.02-4.88-1.04-.57-3.51-.45-4.05,.31-2.98,4.17-5.45,8.69-11.35,9.54-.2,.03-.56,5.66,.75,7.64,1.24,1.88,4.52,3.06,6.99,3.2,1.11,.06,2.6-3.03,3.56-4.88,.7-1.35,.48-3.21,1.27-4.48,1.45-2.36,3.33-4.45,4.86-6.43v-.02Zm19.71,111.54c-2.97,2.21-5.6,3.57-7.38,5.66-1.84,2.16-2.84,5.02-4.22,7.57,2.88-.11,5.9,.28,8.6-.48,2.39-.67,4.54-2.48,6.6-4.04,3.24-2.45,6.33-5.1,9.48-7.67-.29-.35-.58-.69-.88-1.04h-12.2Zm112.22-150.02c-.08,4.49,2.82,7.66,7.08,7.74,4.34,.07,8.13-3.47,8.09-7.56-.04-4.68-2.38-6.25-9.67-6.2-3.88,.02-5.63,2.23-5.5,6.03h0Zm-33.4-60.54c1.25,2.24,1.68,4.09,2.66,4.45,.89,.33,2.45-.85,3.59-1.57,3.28-2.09,6.39-4.47,9.76-6.38,1.83-1.04,5.83-.95,3.93-3.9-1.6-2.49-7.01-5.63-8.04-4.86-4.47,3.33-7.96,7.99-11.9,12.26h0Zm222.57-6.92c-5.62,.38-10.73,.69-15.84,1.11-.95,.08-2.09,.35-2.75,.95-1.07,.97-1.82,2.3-2.71,3.48,1.42,.49,2.87,1.44,4.26,1.36,1.55-.09,3.17-.9,4.55-1.75,4.25-2.61,7.45-2.21,10.43,2.21,2.84,4.21,5.96,3.67,8.03-.89,2.16-4.78,.31-6.63-5.96-6.46h-.01Zm125.46,78.5c3.51-6.93,.79-20.91-4.74-24.38-5.23,5.28-3.2,15.73,4.74,24.38ZM223.69,400.03c-.6-.87-1.22-2.31-1.63-2.25-1.33,.19-3.03,.57-3.79,1.51-4.17,5.19-8.2,10.49-12.02,15.94-.75,1.07-.37,2.94-.51,4.44,1.56-.49,3.64-.5,4.57-1.54,3.98-4.47,7.66-9.21,11.34-13.94,.88-1.14,1.31-2.63,2.04-4.15h0Zm-26.52-137.02c2.33-1.92,4.89-3.7,7.02-5.89,1.3-1.34,2.45-3.23,2.76-5.03,.83-4.93-2.2-7.11-6.78-5.19-5.32,2.23-6.6,10.24-2.99,16.11h-.01Zm234.1,337.49c5.36,.03,7.39-1.36,7.37-4.6-.02-4.09-3.08-7.21-7.15-7.33-4.06-.12-4.84,2.29-4.8,5.76,.05,3.66,.28,6.82,4.57,6.18h.01ZM172.13,407.88c-.08-.69-.17-1.39-.25-2.08-1.99-.91-3.91-2.33-5.99-2.62-3.78-.52-7.76,2.61-7.08,5.85,.47,2.26,2.99,4.09,4.6,6.11,2.9-2.42,5.81-4.84,8.71-7.25h.01ZM365.73,105.7c-3.44,.68-6.03,.98-8.47,1.73-4.23,1.3-6.4,4.93-5.38,9.29,.23,.98,2.8,2.47,3.12,2.22,4.27-3.32,9.8-5.69,10.73-13.24h0ZM141.53,403.96c-.4-.43-1.5-2.62-3.05-2.99-3.18-.78-9.49,5.75-9.29,9.35,.05,.9,1.38,2.36,2.26,2.47,7.16,.88,9.74-1.02,10.07-8.83h0Zm489.6-143.24c-.97-2.23-1.65-3.81-2.34-5.39-1.57,.96-3.7,1.56-4.57,2.96-1.64,2.6-2.82,5.57-3.62,8.55-.32,1.2,.52,3.64,1.45,4.02,1.09,.45,3.47-.29,4.19-1.3,1.94-2.72,3.3-5.86,4.89-8.84h0Zm-169.21,68.22c.05,.71,.09,1.41,.14,2.12,1.52,.24,3.05,.73,4.56,.67,2.46-.1,4.9-.76,7.37-.83,2.64-.08,5.34,.6,7.92,.23,1.46-.21,2.72-1.84,4.07-2.84-1.35-.8-2.64-2.12-4.07-2.29-2.77-.32-5.67-.31-8.42,.15-3.9,.65-7.71,1.83-11.56,2.79h-.01Zm-77.45-227.95c-2.56,.58-4.21,1.31-5.83,1.24-1.71-.07-3.38-.91-5.91-1.66-.65,.58-2.07,1.85-4.08,3.64,2.3-.43,3.74-.71,5.44-1.03,0,1.52,.03,2.49,0,3.45-.08,2.2-1.23,4.93,2.36,5.44,3.25,.46,4.81-1.42,5.61-4.33,.46-1.69,1.17-3.31,2.42-6.74h0Zm-93.2,80.62c9.19,1.33,13.92-1.48,14.28-8.26-6.25-.65-13.43,3.36-14.28,8.26Zm143.8-57.82c-4.37-2.03-12.41,2.02-14.64,7.06,7.08,1.68,10.45,.11,14.64-7.06Zm-76.93,206.55c-2.31,2.02-3.67,3.22-5.03,4.41,1.49,1.42,2.94,3.92,4.5,3.99,1.87,.08,3.82-1.91,5.73-3.01-1.5-1.55-3-3.11-5.2-5.39h0Zm105.89-235.17c-.49,.31-.98,.62-1.48,.93,.78,1.92,1.38,5.37,2.37,5.48,3,.35,6.16-.59,9.25-1.03-.42-.88-.63-2.3-1.29-2.56-2.88-1.13-5.89-1.92-8.85-2.83h0ZM222.84,357.85c.33-.85,.65-1.7,.98-2.55-3.25-1.46-6.46-3.08-9.81-4.26-.68-.24-1.93,1.1-2.92,1.72,.56,.9,.95,2.37,1.71,2.61,3.28,1.03,6.68,1.69,10.04,2.49h0Zm242.83,86.77c-.7,.15-1.4,.29-2.1,.44-1.46,2.88-2.93,5.77-4.39,8.65l.74,1.27c2.74-1.31,5.8-2.25,8-4.19,.6-.53-1.42-4.03-2.24-6.17h-.01Zm-81.84-236.21c2.44-.57,5.36-.37,6.57-1.71,3.09-3.42,.69-6.31-2.81-6.4-6.34-.17-1.32,5.96-3.75,8.11h-.01Zm-163.03,7.36c-.36,.51-.71,1.02-1.07,1.53,1.15,1.58,2.31,4.48,3.45,4.48,2.4-.01,4.8-1.55,7.19-2.47-.1-.81-.19-1.62-.29-2.43l-9.29-1.11h0Zm176.11,12.45c-2.48-1.78-3.98-3.66-5.08-3.45-1.43,.28-2.55,2.21-3.8,3.42,1.38,1.26,2.59,2.98,4.22,3.58,.74,.27,2.29-1.68,4.66-3.56h0Zm-88.01,109.81c-.08-.51-.16-1.03-.25-1.54-5.44-2.8-8.46-1.96-12.49,4.33,4.82-1.05,8.78-1.92,12.74-2.78h0Zm-215.91,78.01c-.04,.53-.08,1.07-.12,1.6,4.17,.76,8.33,1.64,12.53,2.19,.77,.1,1.72-1.08,2.58-1.67-.91-.71-1.78-1.97-2.72-2.03-4.08-.23-8.18-.1-12.28-.1h0Zm110.42-134.63c1.83-.16,3.68-.32,5.53-.48-.34-2.93-.68-5.87-1.01-8.8-.34,.08-.68,.16-1.02,.24-1,2.58-1.99,5.16-3.49,9.05h-.01Zm-20.09,89.41c.16,.5,.31,1,.47,1.5,3.99-1.2,7.99-2.4,11.98-3.59-.19-.62-.38-1.24-.57-1.85-4.17,.64-8.74,.02-11.88,3.94h0Zm461.09-49.49c1.89-2.35,3.33-3.82,4.29-5.57,.21-.39-1.29-1.72-2-2.61-1.4,1.47-2.94,2.85-4.09,4.5-.27,.39,.8,1.71,1.79,3.68h0Zm102.8,92.25c.41-.82,.82-1.65,1.23-2.47-1.36-.54-2.91-1.76-4.02-1.44-1.34,.38-2.74,1.9-3.28,3.26-.28,.71,1.54,3.15,1.91,3.04,1.49-.42,2.79-1.53,4.16-2.39ZM257.07,195.95c-2.01,1.98-3.65,3.6-5.29,5.22,1.14,.6,2.46,1.9,3.38,1.66,2.81-.74,3.89-2.72,1.91-6.88Zm339.02-13.36l1.36-1.02c-.28-1.79-.27-3.7-.99-5.29-.23-.5-2.72-.6-3.56-.01-.73,.51-1.2,2.68-.71,3.36,.89,1.27,2.56,2,3.91,2.96h-.01Zm-188.02,232.37c.28,.55,.56,1.09,.84,1.64,2.6-1.3,5.19-2.6,7.79-3.9-4.29-2.41-7.12-1.59-8.63,2.26Zm-63.43-44.06c2.9-.96,5.8-1.92,8.71-2.89-.18-.52-.37-1.04-.55-1.57-3.4-.41-6.97-1.28-8.15,4.45h-.01Zm135.26-159.9c-.45-.47-.89-.94-1.34-1.41-1.99,1.69-3.98,3.39-5.97,5.08,5,1.78,6.73-.27,7.31-3.68h0Zm-.16-120.63c-2.26-1.27-3.45-2.48-4.41-2.33-1.1,.18-2,1.58-2.98,2.45,.89,.99,1.78,2.78,2.65,2.78,1.21-.01,2.41-1.38,4.74-2.9h0Zm-178.94,140.37c-1.29,1.97-2.67,3.16-2.49,4.03,.23,1.1,1.66,2.63,2.68,2.71,.96,.08,2.98-1.59,2.89-2.28-.16-1.26-1.53-2.37-3.07-4.46h-.01Zm413.81,266.56c-1.85-1.7-3.19-2.93-4.52-4.16-.65,.82-2.02,2.03-1.82,2.38,.88,1.57,2.19,2.9,3.35,4.31,.76-.65,1.53-1.29,3-2.53h-.01ZM127.45,323.94c-3.56-2.27-7.01-4.48-10.64-6.79,.25,1.02,.15,3.43,1.1,3.97,2.88,1.63,5.69,4.52,9.54,2.83h0Zm202.34-97.77c-2.23-1.15-3.34-2.2-4.11-2-1.12,.29-1.99,1.5-2.97,2.31,.72,.86,1.58,2.51,2.15,2.42,1.31-.22,2.47-1.28,4.93-2.73h0Z"/><path d="M776.9,483.16c.52-2.2,.81-3.39,1.1-4.63-3.9-.28-8.25,3.17-11.32-2.36,3.39-2,6.77-3.98,10.36-6.1,2.92,2.04,5.53,6.31,9.61,2.22,1.14-1.15,1.71-2.87,2.54-4.33-2.09-.78-4.17-1.56-6.7-2.51,4.05-5.06,3.12-11.55,3.76-17.91,.37-3.67,3.81-6.95,5.47-10.58,1.33-2.91,2.42-6.03,2.95-9.17,.5-2.93-.19-6.18,4.3-6.32,.43-.01,.83-1.16,1.55-2.26-1.69-.1-2.82-.02-3.87-.27-1.73-.42-4.81-.94-4.86-1.62-.19-2.26,.29-4.83,1.35-6.84,.75-1.43,2.83-2.18,4.35-3.18,2.91-1.9,4.56-4.29,3.34-7.9-6.12-.73-7.99-2.97-8.44-9.58-.2-2.92-1.21-5.85-1.03-8.72,.25-4.15,1.24-8.25,2.08-13.44-5.44,2.82-10.85,5.62-16.26,8.42-.42-.67-.84-1.34-1.26-2.02,1.12-.74,2.35-1.35,3.33-2.25,1.88-1.71,4.42-3.28,5.24-5.45,1.26-3.35,.25-7.26,3.43-10.38,1.29-1.26,.79-4.58-2.51-5.29-1.23-.27-2.38-.94-3.63-1.46,3.44-4.56,7.13-5.18,11.47-2.81,2.69,1.48,5.8,2.2,8.71,3.26,1.52,.55,3.2,.85,4.53,1.7,3.29,2.1,6.01,4.67,10,6.11,4.69,1.69,1.09,4.91-.12,6.81-2.15-1.09-3.95-2.01-5.75-2.92,.22,1.54,.45,3.08,.84,5.79-1.81,.75-4.19,2.22-6.75,2.71-5.24,1.02-7.76,4.65-6.43,9.63,1.14,4.28,6.63,7.42,3.46,12.9-.08,.15,1.02,1.38,1.61,1.41,.63,.03,1.78-.71,1.84-1.22,.15-1.26-.2-2.57-.41-4.46,1.59-.34,3.11-.81,4.66-.98,6.32-.67,9.63-3.94,10.83-10.38,.23-1.23,1.56-2.34,2.55-3.34,1.64-1.65,3.34-3.24,5.14-4.71,6.71-5.49,6.85-6.69,.81-13.34,1.81-.96,3.59-1.68,5.12-2.76,2.39-1.69,5.07-3.27,6.82-5.53,3.78-4.86,8.77-5.97,15.19-6.42,0,5.29,.61,10.18-.27,14.78-.4,2.09-3.53,4.07-5.85,5.25-2.3,1.17-3.59,2.12-2.74,4.83,.28,.88,.49,2.36,.01,2.82-3.38,3.3-6.62,6.93-10.58,9.35-1.94,1.19-3.12,1.44-2.86,4,.43,4.22-.57,7.09-6.08,6.09-2.54-.46-5.38,.76-8.31,2.33,1.2,.63,2.52,1.11,3.57,1.93,.64,.5,.86,1.53,1.27,2.32-.8,.33-1.58,.85-2.41,.94-.79,.09-1.62-.32-2.44-.39-6.88-.65-10.44,3.73-7.82,10.08,.59,1.42,2.9,2.48,4.64,2.99,2.41,.72,5.01,.77,7.53,1.11,0,.51-.01,1.01-.02,1.52-2.6,.33-5.21,.66-7.81,.99,.31,.3,.63,.61,.94,.91-1.52,2.16-2.87,4.47-4.63,6.41-1.2,1.31-3.16,1.91-4.45,3.16-1.08,1.05-2.45,2.69-2.29,3.9,.14,1.11,2.09,2.04,3.33,2.94,.75,.55,1.66,.88,3.09,1.61-1.18,1.01-1.89,1.87-2.79,2.34-6.59,3.36-9.66,8.83-9.9,16.09-.17,5.23-.69,10.26-5.08,14.09-.97,.85-.74,3.02-1.19,4.55-.78,2.63-.9,6.14-2.68,7.64-3.59,3.03-8.1,4.96-13.18,7.88v.02Zm67.81-124.83c-1.71-1.12-2.56-1.99-3.58-2.27-2.07-.58-4.23-.84-6.36-1.24-.13,.74-.55,2.05-.36,2.14,2.23,1.11,4.51,2.2,6.89,2.93,.67,.21,1.7-.74,3.41-1.56h0Z"/><path d="M454,658.35c-1.39,3.33-2.17,8.91-4.31,9.49-4.01,1.09-9.26,.26-13.18-1.54-6.42-2.95-7.28-10.52-2.76-15.99,.53-.64,1.02-1.33,1.61-1.9,2.27-2.21,1.77-7.87,6.57-6.68,6.67,1.65,11.01,7.72,10.97,13.67v2.5c.36,.15,.73,.3,1.09,.46h.01Z"/><path d="M435.2,55.09c8.97-14.55,23.33-21.03,36.1-29.71,4.92,9.02,4.63,10.26-3.17,14.79-5.15,2.99-10.42,5.79-15.53,8.85-1.35,.81-3.01,2.11-3.32,3.46-1.15,5.04-4.39,5.09-8.3,4.11-1.56-.39-3.12-.81-5.77-1.5h0Z"/><path d="M781.14,303.17c-.73-1.13-1.86-2.45-1.68-2.66,3.6-4.2,.98-10.96,6.88-14.61,4.18-2.59,7.39-6.31,12.69-3.44,1.38,.75,2.61,1.96,3.58,3.21,1.49,1.92,2.7,4.06,4.78,7.26-5.36,5.06-2.83,13.4-2.99,21.25-.49,.02-.97,.03-1.46,.05-1.14-3.62-2.56-7.17-3.33-10.86-.72-3.41-2.13-5.51-5.83-5.51-.49,0-1.04-.01-1.47-.22-4.87-2.34-9.08-3.34-9.46,4.29-.02,.3-.75,.57-1.69,1.25h-.02Z"/><path d="M565.89,267.11c1.04-.81,2.05-1.67,3.13-2.42,3.67-2.56,7.29-5.21,11.07-7.58,2.95-1.85,4.35-4.07,4.12-7.73-.08-1.37,1.7-3.03,2.92-4.27,1.34-1.36,2.92-2.55,4.58-3.5,1.16-.67,2.62-.83,3.95-1.21,.35,1.28,.85,2.55,1,3.86,.09,.76-.81,1.77-.55,2.34,3.26,6.98-1.94,7.96-6.5,10.19-4.06,1.98-7.25,5.72-11.27,7.83-3.61,1.89-7.84,2.6-11.8,3.84-.22-.44-.44-.89-.67-1.33l.02-.02Z"/><path d="M77.06,255.78c5.44-9.91,11.94-13.07,18.2-10.68,1.37,.52,2.96,1.76,3.38,3.02,.32,.95-.88,2.61-1.72,3.71-1.35,1.77-2.95,3.36-4.49,4.98-.53,.56-1.28,1.48-1.79,1.4-4.43-.69-8.83-1.56-13.57-2.44h-.01Z"/><path d="M512.34,15.34c3.37-4.47,6.78-9.43,10.67-13.97,2.1-2.46,6.1-1.44,6.68,1.65,.43,2.27,.21,5.13-.86,7.12-2.21,4.11-13.91,6.48-16.49,5.2h0Z"/><path d="M258.69,334.24c-.34,4.1-.94,7.69-5.94,7.03-3.52-.46-7.81-.37-8.13-5.42-.2-3.17,6.82-9.22,10.28-8.97,5.45,.4,2.15,5.34,3.79,7.36h0Z"/><path d="M492.4,11.71c0,4.66,.11,7.6-.03,10.53-.15,3.06-6.47,8.29-9.27,7.59-.79-.2-1.47-1.48-1.87-2.41-.69-1.58-1.13-3.28-2.04-6.01,3.79-2.78,8.01-5.87,13.21-9.7Z"/><path d="M489.78,644.57c-1.03,4.94-4.88,9.39-8.31,9.12-3.73-.29-4.19-3.3-4.19-6.19,0-4.78,3.31-9.12,6.61-8.1,2.27,.7,3.94,3.38,5.88,5.17h.01Z"/><path d="M711.88,362.81c-6.43-.19-10.62-4.99-9.71-10.66,.47-2.97,3.16-3.9,5.96-2,4.54,3.09,4.44,7.61,3.75,12.66Z"/><path d="M836.91,395.32c-.67-.76-1.7-1.41-1.78-2.15-.09-.97,.4-2.77,.95-2.9,3.11-.74,2.97-2.83,3.12-5.31,.07-1.13,1.76-2.56,3.03-3.09,.91-.38,3.04,.18,3.4,.92,.64,1.31,1.03,3.6,.31,4.54-2.01,2.6-4.62,4.74-7.05,7.01-.45,.42-1.14,.58-1.99,.99h.01Z"/><path d="M771.78,382.71c-1.19,.85-2.39,1.7-3.93,2.8,7.05,6.99-4.28,6.04-3.67,10.42-.68-.27-.9-.28-.95-.39-2.31-4.35,.07-12.98,4.26-14.72,1.23-.51,2.84-.08,4.28-.08,0,.66,.01,1.31,.02,1.97h-.01Z"/><path d="M669.62,374.77c1.3-3.41,2.58-6.78,3.87-10.15,3.28,10.63,9.03,2.61,13.29,2.49-.33,3.35-11.44,8.11-17.15,7.66h-.01Z"/><path d="M209.8,297.29c-3.33,2.39-6.59,4.89-10.04,7.09-.59,.38-2.4-.21-2.88-.89-.49-.69-.46-2.44,.1-3.05,3.09-3.41,6.93-5.3,11.43-5.39,.46,.75,.93,1.49,1.39,2.24h0Z"/><path d="M164.11,294.28c2.36,2.98,4.16,4.81,5.27,7,.23,.45-2.88,3.35-3.13,3.18-2.19-1.49-4.21-3.31-5.91-5.35-.21-.25,1.8-2.34,3.77-4.83h0Z"/><path d="M81.27,356.82c3.47-1.45,6.18-2.99,9.09-3.6,1.19-.25,2.81,1.52,4.23,2.38-.98,.85-1.82,2.06-2.95,2.48-3.09,1.13-6.35,3.29-10.37-1.26Z"/><path d="M280.28,461.73c.78,3.99,2.19,7.48-1.45,9.77-.8,.5-4-.85-4.35-1.92-1.42-4.33,1.84-5.97,5.8-7.85h0Z"/><path d="M763.82,325.08c.77,3.91-.5,6.32-4.12,6.6-.98,.08-3.14-2.04-3.02-2.88,.56-3.78,3.49-4.18,7.14-3.71h0Z"/><path d="M764.52,318.67c2.08-2.48,4.49-5.35,6.99-8.32,2.84,4.82,2.11,5.56-6.99,8.32Z"/><path d="M855.08,282.42c.88,5.5-.71,6.7-8.15,6.14,2.49-1.88,4.99-3.75,8.15-6.14Z"/><path d="M700.86,211.48c1.99,.28,3.99,.56,5.98,.85,.17,.39,.34,.77,.51,1.16-1.53,1.13-2.97,2.88-4.64,3.14-.83,.13-2.09-2.46-3.16-3.81,.43-.44,.87-.89,1.3-1.33h.01Z"/><path d="M252.35,232.97h6.52c-.39,.98-.6,2.64-1.22,2.8-1.71,.46-3.59,.3-5.4,.38,.03-1.06,.06-2.12,.09-3.18h0Z"/><text class="cls-4" transform="translate(856.11 258.22)"><tspan x="0" y="0">Drachenblut</tspan><tspan x="0" y="331.2">S</tspan><tspan class="cls-3" x="149.86" y="331.2">o</tspan><tspan class="cls-1" x="309.83" y="331.2">f</tspan><tspan x="402.54" y="331.2">t</tspan><tspan class="cls-2" x="497.69" y="331.2">W</tspan><tspan x="753.74" y="331.2">orks</tspan></text></svg>