<?xml version="1.0" encoding="UTF-8"?><svg id="Layer_1" xmlns="http://www.w3.org/2000/svg" viewBox="0 0 981.39 520.73"><g><path d="m267.94,223.01c-.08,8.81,2.03,10.56,13.26,11.2,2.18.12,4.56-.57,6.5.93-.35,1.7-1.47,1.58-2.41,1.7q-7.34.94-7.38,8.12c-.01,3.83.14,7.67-.04,11.49-.16,3.31.84,4.92,4.48,4.78,5.82-.21,11.66-.19,17.48.01,3.33.11,4.41-1.27,4.38-4.41-.09-8.49,0-16.98-.02-25.47-.01-8.11,5.24-13.3,10.5-18.27,2.4-2.26,4.25.17,5.47,2.21,3.25,5.42,6.59,10.81,9.44,16.44,1.18,2.33,2.56,3.37,4.51,2.05,2.24-1.51-.11-2.8-.95-4.01-8.24-11.96-16.87-23.66-23.93-36.39-2.17-3.92.64-4.11,3.39-4.11,14.82-.02,29.72.94,44.44-.27,16.09-1.32,32.15-1.37,48.22-2.02,4.85-.2,9.76-1.44,14.74-1.77,5.48-.36,9.45.68,10.39,7.1,1.22-3.53-.01-7.11,2.43-10.44,1.08,5.39,2.15,10.77,3.23,16.16.26.03.53.06.79.1.24-3.74.48-7.48.83-12.76,3.12,5.43,5.68,3.53,7.46,1.02,4.6-6.5,10.91-7.03,18.26-7.34,16.23-.7,32.43-1.75,48.69-2.17,5.78-.15,11.87-.89,17.67-1.96,3.37-.62,5.23.36,6.61,2.68,2.61,4.38,7.56,6.82,9.45,11.74.18.47.91.73,2.14,1.65-.86-8.15,3.04-14.91,2.05-22.31-.49-3.68,2.41-6.78,2.02-10.64-.43-4.27-5.65-8.22-9.02-5.71-2,1.49-5.33-.18-6.34,3.36-.33,1.17-2.02-.52-2.67-1.24-1.85-2.04-3.68-3.84-6.73-3.62-.54.04-1.33-.35-1.65-.8-1.4-1.98-4.39-2.09-5.66.28-1.13,2.13-2.12,3.97-4.75,2.98-2.63-.99-4.38-2.89-4.22-6.03.09-1.82-.1-2.35-2.63-3.01-4.54-1.18-3.6-6.23-3.11-9.86.62-4.57,5.43-6.95,9.32-5.16,1.29-2.79-.29-4.81-2.41-5.67-2.95-1.19-4.41-3.92-6.92-5.48-.76-.47-1.79-1.95-1.58-2.3,3.75-6.16-2.73-8.62-4.64-12.62-1.02-2.13-2.69-3.98-1.57-6.35,1.09-2.32,3.52-1.43,5.37-1.35,3.12.13,6.06.61,6.61-3.86.2-1.62,2.03-2.54,3.52-1.52,2.66,1.82,6.22.8,8.66,3.69.73-1.87-.94-4.11,1.99-4.57,1.72-.27,1.33-1.85.48-3.18-.79-1.23-1.23-2.68-2-3.92-1.66-2.67-1.35-4.06,2.07-4.8,3.74-.81,7.92-1.04,10.31-4.95.34-.56,1.52-1.01,2.2-.88,3.58.68,5.29-1.75,7.34-3.93,4.04-4.29,6.6-3.65,8.74,1.95,1.78,4.65,8.76,5.52,14.05,1.66,2.02-1.47,2.63-5.24,5.91-4.47,3.52.82,5.21,4.38,7.41,6.83,2.66,2.97,4.41,6.28,9.26,6.16,3.02-.08,1.87,2.88,2.03,4.69.25,2.8-1.32,6.58,3.8,6.67.46,0,1.36,1.22,1.3,1.3-3.05,4.09,2.44,6.35,2.15,10.25-.29,3.92,4.81-.04,5.71,1.76.91,1.82-.04,4.67,3.29,4.69.69,0,1.32-.97,2.08-1.24,2.06-.72,4.1-.62,5.23,1.5,1.02,1.92.88,4-1.12,5.29-3.13,2.03-2.99,3.76-.26,6.17,2.04,1.8,3.55,3.5,2.8,7.37-.6,3.06,1.47,6.67-1.98,9.36-.14.11-.09.79.08.92,5.6,4.26-.04,5.7-1.6,8.78-1.98,3.9-4.38,6.3-8.27,7.62-.77.26-2.24.67-2.25.63-1.76-5.36-8.7-1.95-11.17-6.89-1.69-3.39-2.53-2.98-1.3-6.99-4.32-1.12-6.68,2.88-10.6,4.01,1.97.97,3.69,1.77,5.37,2.65,3.36,1.76,5.7,7.14,4.59,10.48-.43,1.29-1.62,1.8-2.69,1.93-1.39.17-2.71-.68-3.12-2.01-.61-1.96-.87-4.34-3.67-3.42-1.85.61-3.55,1.94-2.48,4.54.52,1.28-.4,1.83-1.49,1.99-1.46.21-2.79-.3-3.26-1.71-.64-1.94-1.37-3.77-3.05-5-.84-.61-1.59-1.92-2.98-.84-5.88,4.56-5.12-1.53-6.49-4.1-.44-.83.37-2.89-1.65-1.97-1.08.5-2.33.53-2.65,3.08-.94,7.45-.3,15.03-2.08,22.37-.19.79-.87,1.55-.83,2.3.47,8.98-3.53,17.58-2.22,26.61.6,4.13-1.2,7.81-2.08,11.66-.34,1.47-1.37,2.18-2.81,2.47-1.11.22-2.53.3-2.68,1.77-.19,1.92,1.63,1.74,2.73,2.28.15.07.28.19.42.26,2.24,1.21,4.74,3.87,6.89,2.64,2.54-1.45-1.18-3.39-1.18-5.59,0-10.47.11-20.9,2.21-31.21.46-2.28,1.96-3.45,4.24-3.42,3.16.05,6.55-.45,9.42.53,4.75,1.62,9.57.78,14.26,1.51,8.91,1.38,18.04.99,26.8,3.57,1.94.57,4.2-.67,6.32.23,1.05.44,2.78.31,3.21,1.03,3.51,5.83,10.61,6.65,15.26,11.2,3.41,3.34,8.44,5.56,12.74,8.28,15.47,9.77,31.94,17.8,47.41,27.61,9.13,5.79,19.3,9.92,28.61,15.46,19.71,11.74,41.19,19.72,61.71,29.75,16.02,7.83,32.49,14.96,49.27,20.97,10.91,3.91,22.07,7.39,33.19,10.82,13.52,4.17,27.33,7.2,40.88,11.31,6.97,2.11,14.35,3.53,21.59,5.03,6.45,1.33,12.76,3.98,19.33,5.39,8.03,1.72,16,3.73,24.07,5.19,3.01.54,5.72,1.31,9.01,3.4-3.75,1.25-6.94,1.28-9.79.37-3.44-1.09-6.84-1.11-10.32-1.27-13.21-.62-26.32-2.38-39.47-3.54-10.05-.88-20-2.57-30.14-2.93-11.34-.4-22.76-2.15-33.8-4.18-8.12-1.49-16.6-3.2-24.69-5.71-3.14-.98-6.42-.71-9.72,0,6.52,2.23,11.7,6.95,19.58,8.73-4.62,2.46-8.61,2.46-11.65,1.27-6.35-2.47-13.28-2.58-19.44-2.83-9.93-.4-19.4-2.98-29.04-4.23-8.11-1.05-16.57.04-24.44-2.98-2.92-1.12-5.75.58-8.1,1.53-5.35,2.16-10.76,1.88-16.18,1.91-18.31.13-36.63.05-54.94.09-2.25,0-4.69-.61-6.42,1.74-.37.51-1.94.89-2.18.63-3.16-3.53-6.63.44-8.9-.16-6.35-1.68-11.72,1.39-17.53,1.81-6.27.45-12.51,1.1-18.8.7-.97-.06-1.93-.3-3.16-1.04,5.46-.04,6.99-6.62,12.44-6.95-4.31-.84-8.7-1.46-12.8-.2-3.61,1.11-7.16,1.49-10.8,1.4-7.16-.16-14.53.92-21.07,2.62-11.8,3.08-23.98,3.51-35.61,6.65-13.28,3.58-27.02,5.59-39.76,11.12-1.55.67-3.18.95-5.21-.61,5.63-3.94,11.75-6.54,17.7-9.22,5.95-2.68,12.51-4.19,18.48-6.63,6.8-2.78,13.7-5.1,20.68-7.21,7.05-2.13,14.29-3.67,21.47-5.33,8.14-1.88,16.31-3.62,24.47-5.39,1.29-.28,2.61-.54,3.93-.56,8.12-.13,15.95-2.1,23.89-3.46,4.06-.7,8.29-.42,12.44-.64,1.25-.07,3.09.29,3.05-1.62-.04-1.84-1.85-1.77-3.1-1.53-12.66,2.49-25.55,2.75-38.32,4.15-10.46,1.14-20.93,2.54-31.35,4.01-11.36,1.6-22.76,3.54-33.89,6.12-10.78,2.5-21.63,5.23-32.24,8.7-4.76,1.55-9.17,4.02-14.08,5.06-1.4.3-3.29,1.13-3.9-.7-.44-1.34.68-2.84,2.07-3.64,1.79-1.03,3.62-1.98,6.18-3.38-5.77-1.63-9.74,1.69-14.19,2.23-7.41.89-14.35,3.79-21.92,4.72-7.79.96-15.77.83-23.51,3.04-5.79,1.65-12.15,1.6-18.12,2.03-11.57.82-22.81,3.4-34.26,4.67-3.26.36-6.27,3.18-10.22.72,3.55-3.67,8.94-3.19,12.63-6.34-3.36-3.35-6.8-.6-10.05-.07-6.4,1.04-12.65,3.36-19.27,1.39-1.49-.44-3.63.28-4.01-2.03-.37-2.22,2.34-1.87,2.95-4.02-28.08,9.54-57.24,12.59-86.76,16.08,1-4.61,6.35-3.56,7.78-8.26-7.88,3.8-15.74,4.07-23.3,5.66-5.57,1.17-11.33,1.93-17.03,2.67-2.78.36-5.66-.39-8.37.85-1.47.67-2.81.05-3.34-1.28-.83-2.05,1.17-1.86,2.26-2.35,4.7-2.1,9.39-4.2,13.94-6.87-21.01,3.69-41.74,8.71-63.6,11.12,1.94-3.22,5.17-4.17,7.89-7.42-20.21,3.31-39.4,6.46-58.59,9.6,4.27-5.03,9.98-6.54,15.51-8.17,10.8-3.18,21.81-5.7,32.53-9.14,4.14-1.33,8.4-.56,12.56-2.48,5.89-2.71,12.42-4.02,18.63-6.37-8.01-.01-15.99-1.49-23.96.58-2.07.54-4.3,1.07-6.38.85-6.41-.67-12.78,1.09-18.51,2.63-14.24,3.82-28.68,3.12-42.95,4.86-13.69,1.68-27.77.58-41.11,5.07-1.22.41-2.64.26-3.97.28-1.47.02-3.19.34-3.95-1.36-.93-2.07,1.06-2.72,2.31-3.98-5.82.1-11.54-1.57-17.07,1.04-.59.28-1.31.54-1.92.45-7.7-1.09-15.36.98-22.46,2.61-10.68,2.45-21.61-.6-31.98,3.1-1.61.57-4.53,1.3-5-1.39-.5-2.84,2.35-2.41,4.22-2.9,6-1.57,11.98-3.21,17.93-4.97,13.47-3.97,26.41-9.61,39.86-13.53,15.28-4.46,29.99-10.32,44.94-15.63,13.15-4.67,26.5-8.95,39-15.06,9.24-4.51,18.73-8.37,28.04-12.66,9.23-4.25,18.92-7.53,27.94-12.16,6.28-3.23,12.71-6.09,19.07-9.12,4.95-2.35,8.82-5.85,11.38-10.65,4.02-7.53,10.28-13.56,14.09-21.23,1.2-2.42,2.72-3.34,4.71-.61,4.55,6.22,7.32,6.49,12.94,1.34.97-.89,2-1.71,3-2.56.26.26.52.51.78.77Zm3.21,19.06c.24-3.97-.29-6.45-3.65-7.12-2.73-.55-8.81,2.45-9.32,4.61-.4,1.7.31,1.93,1.92,1.57,4-.92,5.44,1.44,5.57,4.93.15,3.98.08,7.96.16,11.94.03,1.31,0,2.93,1.92,2.83,1.5-.08,1.6-1.47,1.67-2.64.33-5.76-.41-11.63,1.73-16.11Z"/><path d="m461.31,164.6c-3.26,1.96-5.22,5.69-9.46,5.36-1.95-.15-3.99.29-5.27-1.91-.93-1.6-2.19-.89-3.77-.61-3.02.53-6.53,1.57-7.85-3.41-.91-3.43-5.36-2-7.87-3.71-.7-.48-1.38,1.17-.89,2.18.35.72,1.06,1.26,1.51,1.94.9,1.35,2.53,2.83,1.2,4.41-1.26,1.5-3.57,1.43-5.06.46-1.21-.78-2.54-1.7-1.7-4.37.93-2.96.15-7.09-3.86-8.19-2.76-.76-3.48-4.65-7.1-3.88-1.93.41-4.29-.11-5.14,2.12-.68,1.77,1.22,3.13,1.75,4.72.51,1.54,4.86,1.29,2.1,4.06-2.45,2.45-4.73,5.93-9.21,2.92-4.71-3.17-6.1-10.11-3.3-15.14,1.64-2.95,1.62-6.41-.81-9.31-.95-1.14-2-2.19-2.99-3.3-.94-1.05-1.67-2.38-.82-3.61.89-1.29,2.38-.99,3.57-.2,1.03.68,2.44,1.51,3.06.32,1.71-3.26,4.82-2.94,7.72-3.3-.19-1.57-.97-2.66-2.13-2.45-3.8.71-3.88-2.69-4.49-4.51-.88-2.59,1.87-3.92,3.78-4.39,3-.74,3.9-2.16,3.97-5.16.15-6.2,6.14-9.14,11.24-5.56,1.85,1.3,2.72,1.41,3.75-.74,1.39-2.92,3.23-2.24,5.03-.31,3.15,3.37,6.14,2.79,8.69-.59,2.12-2.8,5.48-3.51,8.18-5.32,1.63-1.1,9.15,2.6,9.27,4.67.15,2.64,2.78,4.79.8,7.99-1.28,2.07,1.32,2.58,2.99,2.45,5.47-.41,7.64,2.68,8.55,7.5.71,3.73,5.18,7.02,8.77,6.71,2.84-.25,4.48,1.46,5.03,3.79.51,2.16,4.68,4.37-.08,6.91-2.49,1.33.26,2.5,1.22,2.88,4.58,1.82,4.34,3.27,0,5.11-1.79.76-2.63,2.08-1.43,4.36.9,1.71.93,4.09-.32,5.75-1.69,2.25-3.77,3.95-6.5.96-1.3-1.43-2.91-2.58-4.52-3.99-.29,2.33-.53,4.83.55,7.36.55,1.29,1.87,2.94-.04,3.89-1.58.79-3.5.79-5.18-.46-1.49-1.11-2.03-2.85-2.96-4.43Z"/><path d="m381.4,24.02c-2.54.23-3.91-1.55-5.29-3.18-4.57-5.42-11.46-5.46-17.32-7.95-5.64-2.39-13.36-1.55-16.47-8.9-.48-1.14-1.09-2.13-.4-3.2.83-1.29,2.08-.76,3.11-.24,2.19,1.11,4.54,1.15,6.84.93,7.19-.7,13.71,1.73,20.01,4.5,4.63,2.04,8.63,1.83,13.22,0,6.7-2.65,13.51-5.34,21.01-4.57.99.1,2,.09,2.98.25,1.88.32,3.94,1.21,3.98,3.08.03,1.74-1.71,2.81-3.69,3.37-5.82,1.67-11.58,3.63-16.3,7.65-2.58,2.2-4.88,4.69-7.7,6.64-1.28.89-2.37,1.74-3.98,1.6Z"/><path d="m401.91,397.82c11.25-2.61,22.4-3.52,33.67-4.02,11.82-.53,23.69-1.34,35.48-3.22,6.42-1.02,12.57-2.48,18.7-4.46,2.49-.8,4.14-2.68,6.22-3.98,1.39-.87,1.32-2.16.18-3.37-2.32-2.46-5.14-4.2-8.4-4.88-8.28-1.72-16.64-2.63-25.12-2.18-2.65.14-5.32-.08-7.98-.22-1.59-.08-3.15-.56-3.08-2.5.06-1.87,1.78-1.87,3.02-1.79,8.39.48,16.77-1.02,25.25,1.34,4.75,1.32,9.99,1.8,15.02,2.41,3.13.38,6.21,1.28,8.22,3.04,5.48,4.79,6.25,7.73.03,12.64-4.78,3.77-10.77,4.75-16.49,6.07-12.9,2.97-26.15,3.13-39.23,4.59-14.32,1.6-28.52,1.02-42.77,1.21-.9.01-1.81-.41-2.71-.63Z"/><path d="m793.63,372.81c-6.92,1.12-14,1.54-20.89.17-3.45-.69-6.8-1.21-10.28-1.21-1.66,0-3.33.1-4.99-.02-19.61-1.38-39.02,2.35-58.61,2.31-5.59-.01-11.59.88-17.06,2.17-3.88.91-7.5,2.92-11.72,2.32-1.11-.16-2.73.02-2.87-1.4-.2-1.95,1.69-1.63,2.87-1.86,9.8-1.98,19.6-3.93,29.4-5.88.33-.06.65-.13.98-.16,20.13-1.78,40.36-3.74,60.46-1.6,10.87,1.16,22.13.5,32.7,5.17Z"/><path d="m180.64,424.45c14.88-4.49,30.31-6.8,45.77-13.07-12.11-8.71-26.14-5.54-38.28-9.56-.21-1.17.56-1.58,1.4-1.61,11.58-.34,23.17-.97,34.31,3.53,2.1.85,3.74,1.96,5.24,3.48,3.33,3.38,3.28,6.9-.81,8.82-7.65,3.58-15.36,7.24-24.07,7.6-4.45.18-8.86,0-13.28,1.52-3.19,1.09-6.84,1.02-10.28-.72Z"/><path d="m382.34,78.49c-7.95,5.32-17.76,4.81-24.29-.47-3.65-2.96-8.45-3.22-12.94-3.92-1.62-.25-3.32,0-4.97-.08-1.4-.06-2.66-.43-2.8-2.17-.13-1.58,0-2.84,1.93-3.45,9.1-2.91,17.75-3.7,26.56,1.73,5.05,3.11,10.84,5.13,16.5,8.36Z"/><path d="m220.07,386.15c12.62,2.66,26.24.67,37.87,8.02.97.61,2.05,1.13,2.83,1.93,2.39,2.43,5.98,4.66,4.55,8.64-1.55,4.3-5.04,7.29-9.14,9.36-.48.24-1.37.14-1.85-.16-.65-.41-.39-1.11.06-1.69,2.29-2.95,5.29-5.66,2.92-10.01-2.77-5.06-7.82-6.34-12.76-7.44-9.96-2.23-19.99-4.15-30.27-4.12-1.44,0-3.29.02-3.34-2.09-.05-1.97,1.57-2.36,3.14-2.42,1.99-.08,3.99-.02,5.99-.02Z"/><path d="m642.72,15.94c-5.05,4.76-9.94,4.28-14.69,4.14-5.49-.16-10.85-.09-15.56,3.45-1.18.89-2.32,1.49-3.14,2.91-1.48,2.58-8.32,3.78-10.74,2.07-1.86-1.32-1.73-3.05-.54-4.76,3.85-5.52,9.51-8.49,15.72-10.14,2.93-.78,6.18-.22,9.06-1.86.89-.5,2.7-.64,3.36-.08,4.47,3.8,10.02,3.89,16.52,4.27Z"/><path d="m721.92,93.13c2.28.68,5.21-.87,5.71,1.52.44,2.13-2.19,3.77-4.09,4.33-6.5,1.92-11.79,5.59-16.71,10.08-1.15,1.05-2.93,1.59-4.51,1.96-2.57.6-5.47-.36-6.75-2.04-1.62-2.14,1.43-3.06,2.85-4.27.88-.74,1.77-1.53,2.43-2.46,5.35-7.46,13.84-7.24,21.08-9.12Z"/><path d="m292.55,371.89c25.25-4.82,49.69-5.63,75.22-4.2-2.25,2.3-4.3,1.61-6.06,1.82-5.74.69-11.58.83-17.29,1.08-16.68.74-33.22,4.35-50.02,2.7-.27-.03-.5-.36-1.86-1.4Z"/><path d="m676.03,144.33c3.42.64,8.1-1.47,12.11,1.66.84.65,2.54.76,1.85,2.37-.63,1.47-1.86,2.43-3.61,1.76-5.65-2.17-9.98-.12-14.09,3.8-2.94,2.8-13.98.14-15.75-3.64-1.05-2.25.65-3.13,2.5-3.91,5.19-2.2,10.64-2.14,17-2.04Z"/><path d="m218.08,384.07h-57.52c7.43-3.29,44.92-7.24,57.52,0Z"/><path d="m263.23,142.82c-2.69.17-4.61-.07-5.37-2.09-1-2.7,1.88-2.03,2.9-3,2.15-2.05,4.35-4.04,6.41-6.17,4.09-4.22,9.46-4.78,14.83-5.12,2.38-.15,3.12,1.27,1.13,2.98-5.69,4.89-11.49,9.66-18.24,13.08-.7.36-1.61.3-1.67.31Z"/><path d="m229.89,90.04c-5.86-.05-16.34-8.23-17.27-13.27-.13-.71.11-1.78.59-2.25.72-.69,1.46.15,2.15.59,6.67,4.23,13.48,8.05,21.67,8.34,1.18.04,2.39.27,2.59,1.78.21,1.61-.59,2.4-2.16,2.74-2.69.58-4.91,2.92-7.57,2.08Z"/><path d="m160.37,134.78c-7.15-1.77-13.93-4.33-19.1-10.02-.79-.86-.86-1.8-.24-2.7.59-.87,1.4-.49,2.2-.18,7.57,3.02,15.53,4.66,23.39,6.64,1.32.33,1.79,1.55,1.94,2.65.17,1.22-.94,1.51-1.95,1.77-2.06.55-4.09,1.19-6.24,1.82Z"/><path d="m776.65,75.41c2.95-.21,4.11.94,2.84,3.8-1.78,4-3.83,7.88-5.2,12.07-.56,1.7-2.15,3.33-4.24,2.26-1.97-1-3.49-2.83-2.37-5.25,1.44-3.13,2.79-6.19,3.52-9.63.48-2.25,2.86-3.49,5.46-3.26Z"/><path d="m191.51,179.35c-2.58-.81-4.88-2.51-5.66-5.39-.84-3.07,2.38-2.66,3.85-3.49,3.93-2.21,8.76-.52,12.86-2.77,1.29-.71,2.25.88,1.76,2.55-.49,1.69-10.69,9.12-12.81,9.1Z"/><path d="m836.09,97.06c.13,2.04-.74,2.61-1.35,3.38-3.38,4.28-8.08,6.5-12.93,8.56-2.73,1.16-4.68-.98-7-1.53-1.06-.25-1.02-1.57-.8-2.56.27-1.2,1.32-1.58,2.28-1.44,6.49.96,10.71-3.25,15.25-6.67,1.14-.85,2.21-1.47,3.6-.91.89.36.95,1.25.94,1.17Z"/><path d="m267.16,222.24c.75-5.84,4.7-10.28,6.87-15.51,1.43-3.44,3.55-6.65,5.7-9.73.99-1.42,2.37-4,4.42-2.72,1.6,1,.32,3.23-.35,4.98-.92,2.42-3.19,3.69-4.36,5.88-2.53,4.74-5.21,9.41-7.91,14.06-.89,1.53-1.57,3.33-3.6,3.81-.26-.26-.52-.51-.77-.77Z"/><path d="m456.97,352.41c-13.37.66-26.69,2.1-40.08,2.4,13.07-6.09,26.66-2.83,40.08-2.4Z"/><path d="m643.75,356.97c13.79-4.11,27.74-4.41,41.8-2.43-13.96.41-27.84,2.16-41.8,2.43Z"/><path d="m106.55,411.29c14.41-4.09,28.48-3.16,43.14-2.77-1.36,2.36-2.99,1.87-4.31,1.89-6.8.1-13.63.43-20.4,0-4.17-.26-7.62,2.32-11.66,1.99-2.07-.17-4.27.64-6.76-1.11Z"/></g><g><path d="m114.37,491.04v-4.85c2.88-.58,5.11-1.24,6.71-1.99,1.59-.75,2.39-1.44,2.39-2.06v-65.81c0-.62-.77-1.32-2.32-2.09-1.55-.77-3.81-1.45-6.77-2.03v-4.85h34.86v4.85c-2.92.62-5.18,1.29-6.77,2.03s-2.39,1.43-2.39,2.09v61.82c0,1.68.91,2.92,2.72,3.72,1.81.8,5.02,1.2,9.63,1.2h7.5c2.7,0,4.87-.43,6.51-1.29,1.64-.86,3.02-2.26,4.15-4.18s2.38-4.75,3.75-8.47l4.85,1.73c-.31,3.72-.75,7.68-1.33,11.89-.58,4.21-1.04,6.97-1.39,8.3h-62.09Z"/><path d="m222.54,487.71c-1.13-1.88-1.8-4.46-2.03-7.74-3.68,3.72-7.44,6.41-11.29,8.07s-7.42,2.49-10.69,2.49c-2.57,0-5-.59-7.3-1.76-2.3-1.17-4.18-2.91-5.64-5.21-1.46-2.3-2.19-5.09-2.19-8.37,0-2.79.5-5.25,1.49-7.37s2.4-4.09,4.22-5.91c1.64-1.64,3.53-3.07,5.68-4.28,2.15-1.22,5.27-2.41,9.36-3.59,4.09-1.17,9.53-2.27,16.3-3.29v-7.84c0-2.97-.64-5.29-1.93-6.97-1.28-1.68-3.48-2.52-6.57-2.52-1.37,0-2.72.31-4.05.93-1.33.62-2.41,1.52-3.25,2.69-.84,1.17-1.26,2.54-1.26,4.08l.07.8c.04.53-1.19,1.25-3.69,2.16-2.5.91-5.21,1.71-8.13,2.39-2.92.69-4.74.94-5.45.76l-1.39-3.59c1.42-3.45,3.86-6.62,7.34-9.5,3.48-2.88,7.57-5.16,12.29-6.84,4.71-1.68,9.48-2.52,14.31-2.52,5.84,0,10.25,1.46,13.21,4.38,2.97,2.92,4.45,6.77,4.45,11.55v32.01c0,3.45.89,5.18,2.66,5.18.66,0,1.4-.12,2.22-.37.82-.24,2.09-.72,3.82-1.43l1.46,4.98c-3.72,2.57-7.55,4.78-11.49,6.64-3.94,1.86-6.73,2.79-8.37,2.79s-3.02-.94-4.15-2.82Zm-2.09-30.45c-5.05.84-8.72,1.67-11.02,2.49-2.3.82-4.07,1.85-5.31,3.09-1.28,1.28-2.25,2.58-2.89,3.88-.64,1.31-.96,2.84-.96,4.62,0,2.7.65,4.64,1.96,5.81,1.31,1.17,2.71,1.76,4.22,1.76,1.86,0,3.88-.5,6.08-1.49s4.84-2.82,7.94-5.48v-14.68Z"/><path d="m287.38,484.87c3.14-.8,5.39-1.52,6.74-2.16,1.35-.64,2.03-1.27,2.03-1.89v-30.15c0-3.28-.22-5.82-.66-7.64-.44-1.81-1.16-3.1-2.16-3.85-1-.75-2.38-1.13-4.15-1.13-2.3,0-4.86.68-7.67,2.03-2.81,1.35-6.23,3.75-10.26,7.21v33.54c0,.66.77,1.36,2.32,2.09,1.55.73,3.72,1.38,6.51,1.96v4.85h-33.54v-4.85c3.14-.8,5.39-1.49,6.74-2.09,1.35-.6,2.03-1.25,2.03-1.96v-36.86c0-2.66-.12-4.45-.37-5.38-.24-.93-.93-1.6-2.06-2.03-1.13-.42-3.24-.81-6.34-1.16v-4.65c4.21-.44,7.94-1.04,11.19-1.79,3.25-.75,6.5-1.75,9.73-2.99l2.79,2.79.73,9.56c4.91-4.21,9.63-7.32,14.14-9.33,4.52-2.01,8.61-3.02,12.29-3.02,4.21,0,7.7,1.38,10.49,4.15,2.79,2.77,4.18,7.05,4.18,12.85v37.85c0,.62.63,1.24,1.89,1.86,1.26.62,3.57,1.35,6.94,2.19v4.85h-33.54v-4.85Z"/><path d="m365.74,478.91c-2.88,2.92-5.38,5.2-7.5,6.84-2.12,1.64-4.27,2.84-6.44,3.62-2.17.77-4.63,1.16-7.37,1.16-4.03,0-7.91-1.28-11.65-3.85-3.74-2.57-6.78-6.24-9.13-11.02-2.35-4.78-3.52-10.31-3.52-16.6,0-5.93,1.38-11.53,4.15-16.8,2.77-5.27,6.61-9.5,11.52-12.68s10.45-4.78,16.6-4.78c2.3,0,4.47.28,6.51.83,2.04.55,4.16,1.58,6.38,3.09v-22.78c0-3.81-.12-6.34-.37-7.6-.24-1.26-.95-2.16-2.12-2.69-1.17-.53-3.38-.91-6.61-1.13v-4.58c4.47-.44,8.68-1.06,12.62-1.86,3.94-.8,7.24-1.62,9.89-2.46l2.52,2.46v80.62c0,3.01.11,5.14.33,6.38.22,1.24.62,2.06,1.2,2.46.35.22.8.33,1.33.33,1.11,0,2.99-.58,5.64-1.73l1.86,4.85c-3.9,2.61-7.84,4.86-11.82,6.74s-6.62,2.82-7.9,2.82c-3.19,0-5.22-3.87-6.11-11.62Zm-6.44-43.26c-2.39-1.39-5.05-2.09-7.97-2.09-4.65,0-8.36,1.82-11.12,5.45-2.77,3.63-4.15,9.12-4.15,16.47,0,4.47.73,8.41,2.19,11.82,1.46,3.41,3.35,6.03,5.68,7.87,2.32,1.84,4.73,2.76,7.21,2.76,2.35,0,4.59-.58,6.74-1.73,2.15-1.15,4.62-2.99,7.4-5.51v-29.02c-1.59-2.61-3.59-4.62-5.98-6.01Z"/><path d="m397.99,484.87c2.83-.58,5-1.23,6.51-1.96,1.5-.73,2.26-1.43,2.26-2.09v-36.92c0-2.39-.17-4.09-.5-5.11-.33-1.02-1.09-1.77-2.26-2.26-1.17-.49-3.18-.86-6.01-1.13v-4.65c8.01-1.11,14.83-2.7,20.45-4.78h4.25v54.85c0,.62.73,1.32,2.19,2.09,1.46.78,3.67,1.43,6.64,1.96v4.85h-33.54v-4.85Zm9.56-70.69c-1.73-1.26-2.59-3.09-2.59-5.48,0-1.95.49-3.69,1.46-5.21.97-1.53,2.31-2.71,4.02-3.55,1.7-.84,3.57-1.26,5.61-1.26,2.61,0,4.79.62,6.54,1.86,1.75,1.24,2.62,3.05,2.62,5.45,0,2.97-1.05,5.39-3.15,7.27-2.1,1.88-4.77,2.82-8,2.82-2.61,0-4.78-.63-6.51-1.89Z"/><path d="m479.42,484.29c3.14-.8,5.39-1.52,6.74-2.16,1.35-.64,2.03-1.27,2.03-1.89v-30.15c0-3.28-.22-5.82-.66-7.64-.44-1.81-1.16-3.1-2.16-3.85-1-.75-2.38-1.13-4.15-1.13-2.3,0-4.86.68-7.67,2.03-2.81,1.35-6.23,3.75-10.26,7.21v33.54c0,.66.77,1.36,2.32,2.09,1.55.73,3.72,1.38,6.51,1.96v4.85h-33.54v-4.85c3.14-.8,5.39-1.49,6.74-2.09,1.35-.6,2.03-1.25,2.03-1.96v-36.86c0-2.66-.12-4.45-.37-5.38-.24-.93-.93-1.6-2.06-2.03-1.13-.42-3.24-.81-6.34-1.16v-4.65c4.21-.44,7.94-1.04,11.19-1.79,3.25-.75,6.5-1.75,9.73-2.99l2.79,2.79.73,9.56c4.91-4.21,9.63-7.32,14.14-9.33,4.52-2.01,8.61-3.02,12.29-3.02,4.21,0,7.7,1.38,10.49,4.15,2.79,2.77,4.18,7.05,4.18,12.85v37.85c0,.62.63,1.24,1.89,1.86,1.26.62,3.57,1.35,6.94,2.19v4.85h-33.54v-4.85Z"/><path d="m543.46,468.28c-1.68,1.09-2.89,2.06-3.62,2.89-.73.84-1.14,1.47-1.22,1.91-.11.61.11,1.2.66,1.77s1.85,1.3,3.89,2.19c2.04.89,5.17,2,9.38,3.34,6.56,2.04,11.61,4.09,15.15,6.17,3.54,2.08,5.89,4.27,7.05,6.57s1.47,4.95.93,7.96c-.72,4.01-3.17,7.67-7.34,10.99-4.17,3.32-9.19,5.75-15.04,7.28-5.85,1.53-11.53,1.8-17.02.82-4.97-.89-9.8-2.42-14.49-4.57-4.7-2.15-8.44-4.85-11.23-8.09-2.79-3.25-3.83-6.85-3.11-10.82.42-2.35,2.02-4.56,4.8-6.62,2.78-2.06,7.61-4.25,14.51-6.56-2.27-1.4-3.93-2.75-5-4.07-1.07-1.32-1.5-2.54-1.3-3.67s1.49-2.64,3.85-4.54c2.36-1.89,5.79-3.83,10.29-5.81-4.72-2.24-8.26-5.29-10.6-9.13-2.34-3.84-3.11-8.05-2.28-12.62.75-4.18,2.78-7.83,6.09-10.95,3.3-3.12,7.35-5.33,12.13-6.66,4.78-1.32,9.66-1.53,14.62-.64,5.79,1.04,10.68,3.5,14.67,7.36,5.48.27,11.62-.2,18.4-1.41l1.39,2.75c-.49.95-1.22,2.1-2.21,3.45-.99,1.35-1.94,2.48-2.87,3.4-3.41-.03-6.66-.25-9.73-.67,1.35,3.48,1.72,6.94,1.1,10.39-.78,4.31-2.72,7.97-5.82,10.96-3.1,3-6.91,5.09-11.42,6.28-4.51,1.19-9.16,1.35-13.95.49l-.65-.12Zm-15.69,22.68c-1.51,1.12-2.53,2.14-3.08,3.06s-.91,1.89-1.1,2.94c-.35,1.92.25,3.88,1.77,5.89,1.53,2.01,3.8,3.8,6.82,5.38,3.02,1.58,6.47,2.72,10.35,3.42,3.27.59,6.13.55,8.59-.11,2.46-.66,4.4-1.77,5.83-3.34s2.33-3.39,2.71-5.48c.35-1.96-.47-3.88-2.47-5.74-2-1.87-6.09-3.76-12.27-5.68-3.41-1.06-6.97-2.38-10.69-3.95-2.8,1.3-4.95,2.5-6.46,3.63Zm16.65-58.17c-1.63.67-3.09,1.84-4.37,3.5s-2.16,3.77-2.63,6.34c-.84,4.66-.38,8.69,1.37,12.09,1.75,3.4,4.85,5.49,9.29,6.29,2.7.49,5.16-.15,7.36-1.91,2.21-1.76,3.66-4.58,4.36-8.46.54-3.01.51-5.81-.1-8.42s-1.81-4.8-3.6-6.59c-1.79-1.78-4.1-2.93-6.94-3.44-1.53-.27-3.1-.07-4.73.6Z"/><path d="m589.84,484.69c2.88-.58,5.11-1.24,6.71-1.99,1.59-.75,2.39-1.44,2.39-2.06v-68c-3.19.4-6.22.84-9.1,1.33l-.86-6.11c4.83-1.15,10.55-2.1,17.17-2.86,6.62-.75,12.85-1.13,18.69-1.13,6.91,0,12.94.91,18.1,2.72,5.16,1.82,9.15,4.49,11.99,8.04,2.83,3.54,4.25,7.79,4.25,12.75,0,5.76-1.45,10.72-4.35,14.91s-6.53,7.35-10.89,9.5c-4.36,2.15-8.62,3.22-12.78,3.22-2.08,0-4.11-.17-6.08-.5s-3.71-.83-5.21-1.49l-2.06-6.97c1.73.8,3.28,1.33,4.65,1.59s2.9.4,4.58.4c2.7,0,5.22-.65,7.57-1.96,2.35-1.31,4.24-3.3,5.68-5.98,1.44-2.68,2.16-6.01,2.16-9.99s-.89-7.61-2.66-10.49c-1.77-2.88-4.27-5.05-7.5-6.51s-6.97-2.19-11.22-2.19c-1.11,0-2.94.04-5.51.13v69.59c0,1.46,3.72,2.81,11.16,4.05v4.85h-36.86v-4.85Z"/><path d="m698.46,487.31c-1.13-1.88-1.8-4.46-2.03-7.74-3.67,3.72-7.44,6.41-11.29,8.07s-7.42,2.49-10.69,2.49c-2.57,0-5-.59-7.3-1.76s-4.18-2.91-5.64-5.21c-1.46-2.3-2.19-5.09-2.19-8.37,0-2.79.5-5.25,1.49-7.37s2.4-4.09,4.22-5.91c1.64-1.64,3.53-3.07,5.68-4.28,2.15-1.22,5.27-2.41,9.36-3.59,4.09-1.17,9.53-2.27,16.3-3.29v-7.84c0-2.97-.64-5.29-1.93-6.97-1.28-1.68-3.48-2.52-6.57-2.52-1.37,0-2.72.31-4.05.93-1.33.62-2.41,1.52-3.25,2.69-.84,1.17-1.26,2.54-1.26,4.08l.07.8c.04.53-1.18,1.25-3.69,2.16-2.5.91-5.21,1.71-8.13,2.39-2.92.69-4.74.94-5.45.76l-1.39-3.59c1.42-3.45,3.86-6.62,7.34-9.5,3.48-2.88,7.57-5.16,12.29-6.84,4.71-1.68,9.49-2.52,14.31-2.52,5.84,0,10.25,1.46,13.21,4.38s4.45,6.77,4.45,11.55v32.01c0,3.45.89,5.18,2.66,5.18.66,0,1.41-.12,2.22-.37.82-.24,2.09-.72,3.82-1.43l1.46,4.98c-3.72,2.57-7.55,4.78-11.49,6.64s-6.73,2.79-8.37,2.79-3.02-.94-4.15-2.82Zm-2.09-30.45c-5.05.84-8.72,1.67-11.02,2.49-2.3.82-4.07,1.85-5.31,3.09s-2.25,2.58-2.89,3.88c-.64,1.31-.96,2.84-.96,4.62,0,2.7.65,4.64,1.96,5.81,1.31,1.17,2.71,1.76,4.22,1.76,1.86,0,3.88-.5,6.08-1.49s4.84-2.82,7.94-5.48v-14.68Z"/><path d="m752.12,468.27c-1.68,1.09-2.89,2.05-3.63,2.89-.74.83-1.14,1.47-1.22,1.9-.11.61.11,1.2.66,1.77s1.85,1.3,3.89,2.19c2.04.89,5.17,2.01,9.38,3.35,6.56,2.04,11.61,4.1,15.14,6.18,3.54,2.08,5.88,4.27,7.04,6.57s1.46,4.96.92,7.96c-.73,4.01-3.18,7.67-7.35,10.98-4.18,3.31-9.19,5.74-15.05,7.26-5.85,1.53-11.53,1.79-17.02.8-4.97-.9-9.8-2.43-14.49-4.58-4.69-2.16-8.43-4.86-11.22-8.11-2.79-3.25-3.82-6.86-3.1-10.82.43-2.35,2.03-4.56,4.81-6.62s7.62-4.24,14.51-6.55c-2.27-1.4-3.93-2.76-5-4.08-1.07-1.32-1.5-2.54-1.29-3.68s1.49-2.64,3.86-4.53c2.37-1.89,5.8-3.82,10.3-5.8-4.72-2.25-8.25-5.3-10.59-9.14-2.34-3.84-3.1-8.05-2.27-12.63.76-4.18,2.79-7.83,6.1-10.94s7.35-5.33,12.14-6.64c4.78-1.32,9.66-1.52,14.62-.63,5.79,1.05,10.68,3.51,14.66,7.38,5.48.27,11.62-.19,18.41-1.39l1.39,2.75c-.49.95-1.22,2.1-2.21,3.45-.99,1.35-1.95,2.48-2.88,3.39-3.41-.03-6.66-.26-9.73-.68,1.35,3.48,1.71,6.95,1.09,10.39-.78,4.31-2.72,7.97-5.83,10.96-3.11,2.99-6.92,5.08-11.43,6.27-4.51,1.19-9.16,1.34-13.95.48l-.65-.12Zm-15.71,22.66c-1.51,1.12-2.54,2.14-3.08,3.05s-.92,1.89-1.11,2.94c-.35,1.92.24,3.88,1.77,5.89,1.53,2.01,3.8,3.8,6.82,5.39,3.02,1.58,6.47,2.72,10.35,3.43,3.27.59,6.13.56,8.59-.1,2.46-.66,4.4-1.77,5.83-3.33s2.33-3.39,2.71-5.48c.35-1.96-.47-3.88-2.47-5.74-2-1.87-6.09-3.77-12.26-5.7-3.41-1.07-6.97-2.39-10.69-3.96-2.8,1.29-4.95,2.5-6.46,3.62Zm16.71-58.15c-1.63.67-3.09,1.84-4.38,3.49s-2.17,3.77-2.63,6.34c-.84,4.66-.39,8.69,1.35,12.09,1.75,3.4,4.84,5.5,9.28,6.3,2.7.49,5.16-.15,7.36-1.91s3.66-4.58,4.37-8.46c.54-3.01.51-5.81-.1-8.42s-1.81-4.8-3.6-6.59c-1.79-1.79-4.1-2.94-6.93-3.45-1.53-.28-3.1-.08-4.73.59Z"/><path d="m806.65,460.26c.13,4.29.87,8.09,2.22,11.39,1.35,3.3,3.25,5.88,5.71,7.74s5.37,2.79,8.73,2.79c2.08,0,3.98-.19,5.71-.56,1.73-.38,3.74-1.14,6.04-2.29,2.3-1.15,5.11-2.88,8.43-5.18.49.27,1.08.88,1.79,1.83.71.95,1.26,1.76,1.66,2.42-4.07,4.12-7.63,7.24-10.66,9.36s-5.95,3.59-8.77,4.38-6.08,1.2-9.79,1.2c-5,0-9.61-1.32-13.81-3.95s-7.55-6.34-10.03-11.12-3.72-10.2-3.72-16.27,1.15-11.34,3.45-16.1c2.3-4.76,5.71-8.78,10.23-12.05,2.43-1.81,5.29-3.31,8.57-4.48,3.28-1.17,6.53-1.76,9.76-1.76,5.58,0,10.25,1.24,14.01,3.72,3.76,2.48,6.56,5.78,8.4,9.89s2.76,8.66,2.76,13.61c-.75.84-2.08,1.79-3.98,2.86s-3.67,1.93-5.31,2.59h-31.41Zm22.31-7.44c.97,0,1.64-.17,1.99-.5s.53-.96.53-1.89c0-2.08-.38-4.26-1.13-6.54-.75-2.28-2-4.24-3.75-5.88-1.75-1.64-4.02-2.46-6.81-2.46-3.98,0-7.01,1.48-9.06,4.45-2.06,2.97-3.35,7.24-3.88,12.82h22.11Z"/></g></svg>